<?xml version="1.0" standalone="no"?>
<!DOCTYPE svg PUBLIC "-//W3C//DTD SVG 20010904//EN"
 "http://www.w3.org/TR/2001/REC-SVG-20010904/DTD/svg10.dtd">
<svg version="1.0" xmlns="http://www.w3.org/2000/svg"
 width="260.000000pt" height="260.000000pt" viewBox="0 0 260.000000 260.000000"
 preserveAspectRatio="xMidYMid meet">
<metadata>
Created by potrace 1.11, written by Peter Selinger 2001-2013
</metadata>
<g transform="translate(0.000000,260.000000) scale(0.100000,-0.100000)"
fill="#000000" stroke="none">
<path d="M2137 2589 c-96 -15 -202 -85 -264 -173 l-20 -29 -86 37 c-360 155
-808 125 -1139 -76 l-74 -45 -54 31 c-140 79 -321 4 -366 -152 -21 -70 -11
-136 29 -204 l32 -53 -38 -73 c-348 -663 -43 -1481 655 -1758 191 -76 461
-104 662 -70 262 45 481 154 668 334 238 228 367 505 393 842 15 188 -36 443
-122 615 -15 29 -21 51 -15 53 28 9 104 77 131 116 53 76 66 122 66 226 0 82
-4 103 -27 152 -76 163 -254 257 -431 227z m189 -225 c102 -82 102 -225 0
-308 -30 -25 -48 -31 -100 -34 -76 -5 -130 18 -173 75 -25 33 -28 44 -28 114
0 71 2 80 30 115 48 58 88 76 167 72 57 -3 73 -8 104 -34z m-1871 -156 c37
-29 57 -80 49 -124 -12 -66 -93 -118 -154 -99 -12 4 -37 20 -55 37 -60 52 -57
130 7 183 39 33 113 35 153 3z m968 -568 c75 -28 173 -118 209 -192 40 -82 54
-167 39 -247 -61 -331 -461 -450 -690 -205 -70 74 -101 147 -108 250 -21 290
271 499 550 394z"/>
</g>
</svg>
