<svg xmlns="http://www.w3.org/2000/svg" xmlns:xlink="http://www.w3.org/1999/xlink"><symbol id="arrow" viewBox="0 0 24 24"><path d="M21.2 5L12 14.2 2.8 5 0 7.8l12 12 12-12z"/></symbol><symbol id="email-fill" viewBox="0 0 24 24"><path d="M21.1 3H2.9C1.3 3 0 4.3 0 5.9v12.4c0 1.6 1.3 2.9 2.9 2.9H21c1.6 0 2.9-1.3 2.9-2.9V5.9C24 4.3 22.7 3 21.1 3zm0 15.5c-.1.1-.3.2-.5.2s-.3-.1-.5-.2l-6-5.7-1.7 1.5c-.1.1-.3.2-.4.2-.2 0-.3-.1-.4-.2L10 12.8l-6 5.6c-.1.1-.3.2-.5.2s-.4-.1-.5-.2c-.3-.3-.2-.7 0-.9L8.9 12 3 6.7c-.3-.2-.3-.7-.1-.9.2-.3.7-.3.9-.1l6.4 5.8.1.1L12 13l8.1-7.3c.3-.2.7-.2.9 0 .2.3.2.7 0 .9L15.1 12l5.9 5.6c.3.2.3.7.1.9z"/></symbol><symbol id="email" viewBox="0 0 24 24"><path d="M21.1 2.7H2.9C1.3 2.7 0 4 0 5.6V18c0 1.6 1.3 3 2.9 3H21c1.6 0 2.9-1.3 2.9-2.9V5.6c.1-1.6-1.2-2.9-2.8-2.9zM22.7 18c0 .9-.7 1.6-1.6 1.6H2.9c-.9 0-1.6-.7-1.6-1.6V5.6c0-.8.8-1.6 1.6-1.6H21c.9 0 1.6.7 1.6 1.6l.1 12.4z"/><path d="M15.1 11.7L21 6.4c.3-.2.3-.7 0-.9-.2-.3-.7-.3-.9 0L12 12.7l-1.6-1.4-.1-.1-6.4-5.8c-.3-.2-.7-.2-1 .1s-.2.7.1.9l5.9 5.3L3 17.3c-.3.3-.3.7 0 .9.1.1.3.2.5.2s.3-.1.5-.2l6-5.6 1.6 1.5c.1.1.3.2.4.2s.3-.1.4-.2l1.7-1.5 6 5.7c.1.1.3.2.5.2s.4-.1.5-.2c.3-.3.2-.7 0-.9l-6-5.7z"/></symbol><symbol id="location" viewBox="0 0 24 24"><path d="M11.8 0C7 0 3 4 3 8.8c0 1.3.3 2.5.8 3.6 2.2 4.8 6.4 9.9 7.7 11.4.1.1.2.2.4.2.1 0 .3-.1.4-.2 1.2-1.4 5.5-6.6 7.7-11.4.5-1.1.8-2.3.8-3.6-.1-4.8-4.1-8.8-9-8.8zm0 13.4c-2.5 0-4.6-2.1-4.6-4.6 0-2.5 2.1-4.6 4.6-4.6s4.6 2.1 4.6 4.6c0 2.6-2 4.6-4.6 4.6z"/></symbol><symbol id="message" viewBox="0 0 24 24"><path d="M20.5 3.5C18.2 1.3 15.2 0 12 0S5.8 1.3 3.5 3.5c-4.4 4.4-4.7 11.4-.8 16.1-.5 1.1-1.2 1.8-1.9 2.2-.4.2-.7.7-.6 1.2.1.5.4.9.9.9.3 0 .6.1.9.1 1.5 0 3-.5 4.3-1.4C8 23.5 10 24 12 24c3.2 0 6.2-1.2 8.5-3.5S24 15.2 24 12s-1.3-6.2-3.5-8.5zm-1 16c-2 2-4.7 3.1-7.5 3.1-1.9 0-3.8-.5-5.4-1.5-.1-.1-.2-.1-.3-.1-.1 0-.3.1-.4.1-1.5 1.2-3.1 1.4-3.8 1.4.8-.6 1.5-1.5 2.1-2.8 0-.2 0-.5-.2-.7C.3 14.8.5 8.4 4.5 4.5c2-2 4.7-3.1 7.5-3.1s5.5 1.1 7.5 3.1c4.2 4.1 4.2 10.9 0 15z"/><path d="M17 8H7c-.4 0-.7.3-.7.7s.3.7.7.7h10c.4 0 .7-.3.7-.7S17.4 8 17 8zM17 11.3H7c-.4 0-.7.3-.7.7s.3.7.7.7h10c.4 0 .7-.3.7-.7s-.3-.7-.7-.7zM17 14.6H7c-.4 0-.7.3-.7.7s.3.7.7.7h10c.4 0 .7-.3.7-.7s-.3-.7-.7-.7z"/></symbol><symbol id="mobile" viewBox="0 0 24 24"><path d="M13 2c0 .2-.2.4-.4.4s-.4-.2-.4-.4.2-.4.4-.4.4.2.4.4z"/><path d="M5.1 9.6V22c0 1.1.9 2 2 2h10.4c1.1 0 2-.9 2-2V2c0-1.1-.9-2-2-2H7.1c-1.1 0-2 .9-2 2v2c-.2 0-.4.2-.4.4V6c0 .2.2.4.4.4v.8c-.2 0-.4.2-.4.4v1.6c0 .1 0 .2.1.3s.2.1.3.1zM18.7 20H5.9V4h12.8v16zm-5.2 2c0 .7-.5 1.2-1.2 1.2s-1.2-.5-1.2-1.2.5-1.2 1.2-1.2 1.2.5 1.2 1.2zm-7.6 0v-1.2h4.8c-.5.7-.5 1.7 0 2.4H7.1c-.7 0-1.2-.5-1.2-1.2zm11.6 1.2h-3.6c.5-.7.5-1.7 0-2.4h4.8V22c0 .7-.5 1.2-1.2 1.2zM7.1.8h10.4c.7 0 1.2.5 1.2 1.2v1.2H5.9V2c0-.7.5-1.2 1.2-1.2z"/></symbol><symbol id="phone" viewBox="0 0 24 24"><path d="M17.6 14.4C16 16 16 17.6 14.4 17.6s-3.2-1.6-4.8-3.2C8 12.8 6.4 11.2 6.4 9.6S8 8 9.6 6.4 6.4 0 4.8 0 0 4.8 0 4.8C0 8 3.3 14.5 6.4 17.6S16 24 19.2 24c0 0 4.8-3.2 4.8-4.8 0-1.6-4.8-6.4-6.4-4.8z"/></symbol><symbol id="process01" viewBox="0 0 24 24"><path d="M23.2 20.1V6.6c0-1.1-.9-1.9-1.9-1.9h-1.2V1.2C20.1.5 19.6 0 19 0H5c-.6 0-1.1.5-1.1 1.2v3.5H2.7C1.6 4.7.8 5.6.8 6.6v13.5H0V22c0 1.1.9 2 1.9 2H22c1.1 0 1.9-.9 1.9-1.9v-1.9h-.7zM21.3 5.4c.6 0 1.2.5 1.2 1.2v13.5h-.8V7c0-.4-.3-.8-.8-.8h-.8v-.8h1.2zM3.1 20.1V7h.8v3.5c0 .6.5 1.2 1.2 1.2h3.8l5.1 3.4v-3.4h5c.6 0 1.2-.5 1.2-1.2V7h.8v13.2h-5.4v.4c0 .2-.2.4-.4.4H8.9c-.2 0-.4-.2-.4-.4v-.4H3.1zM4.6 1.2c0-.2.2-.4.4-.4h14c.2 0 .4.2.4.4v9.3c0 .2-.2.4-.4.4h-5.8v2.8L9 10.8H5c-.2 0-.4-.2-.4-.4V1.2zM1.5 6.6c0-.6.5-1.2 1.2-1.2h1.2v.8h-.8c-.4 0-.8.3-.8.8v13.2h-.8V6.6zm21.7 15.5c0 .6-.5 1.2-1.2 1.2H1.9c-.6 0-1.2-.5-1.2-1.2v-1.2h7c.2.5.6.8 1.1.8H15c.5 0 .9-.3 1.1-.8h7v1.2z"/><path d="M2.3 21.7h.8v.8h-.8v-.8zM3.9 21.7h.8v.8h-.8v-.8zM5.4 21.7h.8v.8h-.8v-.8zM3.9 18.6h8.5v.8H3.9v-.8zM3.9 17h8.5v.8H3.9V17zM3.9 15.5h8.5v.8H3.9v-.8zM14.7 12.4h5.4v.8h-5.4v-.8zM14.7 13.9h5.4v.8h-5.4v-.8zM14.7 15.5h5.4v.8h-5.4v-.8z"/></symbol><symbol id="process02" viewBox="0 0 24 24"><path d="M23.8 2.4L21.5.1c-.1-.1-.4-.1-.5.1l-3.4 3.4V.4c0-.2-.2-.4-.4-.4H2c-.2 0-.4.2-.4.4v1.2H.4c-.2 0-.4.2-.4.4v21.6c0 .2.2.4.4.4h15.2c.2 0 .4-.2.4-.4v-1.2h1.2c.2 0 .4-.2.4-.4V9.2l4.8-4.8c.2.5.1 1-.2 1.4l-2.8 2.8.6.6 2.8-2.8c.7-.7.8-1.7.3-2.5l.7-.9c.2-.1.2-.4 0-.6zM2.4.8h14.4v3.6l-.8.8V2c0-.2-.2-.4-.4-.4H2.4V.8zm12.8 22.4H.8V2.4h14.4V6l-1.6 1.6v-.8h-1.2v.8h1.2l-7.3 7.3c-.1.1-.1.1-.1.2l-.6 2.8c0 .2.1.4.3.5h.2l2.8-.6c.1 0 .1-.1.2-.1l6.1-6.1v11.6zm-6.6-6.1l-2.1.4.4-2.1 7-7 1.7 1.7-7 7zm8.2 4.5H16V10.8l.5-.5.3-.3v11.6zm-.6-12.1l-1.7-1.7L21.3 1 23 2.7l-6.8 6.8z"/><path d="M4 3.6h8v.8H4zM4 6.8h2.4v.8H4zM7.2 6.8h4.4v.8H7.2zM2.4 8.4h3.2v.8H2.4zM6.4 8.4h4v.8h-4zM2.4 10h6.8v.8H2.4zM2.4 11.6h2.4v.8H2.4zM5.6 11.6H8v.8H5.6zM2.4 13.2h4v.8h-4zM10.8 16.4h2.8v.8h-2.8zM2.4 16.4h2v.8h-2zM2.4 18h2.4v.8H2.4zM12.4 14.8h1.2v.8h-1.2z"/></symbol><symbol id="process03" viewBox="0 0 24 24"><path d="M7.7 14.7H10v-2.3H7.7v2.3zm.8-1.5h.8v.8h-.8v-.8zM7.7 11.6H10V9.3H7.7v2.3zm.8-1.5h.8v.8h-.8v-.8zM4.6 14.7H7v-2.3H4.6v2.3zm.8-1.5h.8v.8h-.8v-.8zM4.6 11.6H7V9.3H4.6v2.3zm.8-1.5h.8v.8h-.8v-.8zM1.5 14.7h2.3v-2.3H1.5v2.3zm.8-1.5h.8v.8h-.8v-.8zM1.5 11.6h2.3V9.3H1.5v2.3zm.8-1.5h.8v.8h-.8v-.8zM4.6 8.5H7V6.2H4.6v2.3zM5.4 7h.8v.8h-.8V7zM7.7 8.5H10V6.2H7.7v2.3zM8.5 7h.8v.8h-.8V7zM1.5 8.5h2.3V6.2H1.5v2.3zM2.3 7h.8v.8h-.8V7zM1.5 5.4H10V1.5H1.5v3.9zm.8-3.1h7v2.3h-7V2.3z"/><path d="M12.4 0v16c-.3-.1-.6-.3-.9-.3.1-.2.1-.3.1-.5v-14c0-.6-.5-1.2-1.2-1.2H1.2C.5 0 0 .5 0 1.2v13.9c0 .6.5 1.2 1.2 1.2h.7C.7 17 0 18.3 0 19.7 0 22.1 1.9 24 4.3 24c1.2 0 2.3-.5 3.1-1.3.8.9 1.9 1.3 3.1 1.3 1.2 0 2.3-.5 3.1-1.3.8.9 1.9 1.3 3.1 1.3 1.9 0 3.6-1.3 4.1-3.1H24V0H12.4zM1.2 15.5c-.2 0-.4-.2-.4-.4V1.2c0-.2.2-.4.4-.4h9.3c.2 0 .4.2.4.4v13.9c0 .2-.2.4-.4.4H1.2zm6.8.8c-.2.2-.5.4-.7.6-.2-.2-.4-.4-.7-.6H8zm-3.7 6.9c-1.9 0-3.5-1.6-3.5-3.5s1.6-3.5 3.5-3.5 3.5 1.6 3.5 3.5-1.6 3.5-3.5 3.5zm6.2 0c-1 0-1.9-.4-2.6-1.2.4-.7.7-1.4.7-2.3s-.3-1.6-.7-2.3c.7-.8 1.6-1.2 2.6-1.2 1.9 0 3.5 1.6 3.5 3.5s-1.6 3.5-3.5 3.5zm6.1 0c-1 0-1.9-.4-2.6-1.2.4-.7.7-1.4.7-2.3s-.3-1.6-.7-2.3c.7-.8 1.6-1.2 2.6-1.2 1.9 0 3.5 1.6 3.5 3.5s-1.5 3.5-3.5 3.5zm6.6-3.1h-2.3v-.4-.4h1.6v-2.7h-.8v1.9h-.9a4.2 4.2 0 0 0-4.1-3.1c-1.2 0-2.3.5-3.1 1.3-.1-.1-.2-.3-.4-.4V.8h10.1v19.3z"/><path d="M18.2 14.7c2.3 0 4.3-1.9 4.3-4.3s-1.9-4.3-4.3-4.3-4.3 1.9-4.3 4.3 1.9 4.3 4.3 4.3zm0-7.7c1.9 0 3.5 1.6 3.5 3.5S20.1 14 18.2 14s-3.5-1.6-3.5-3.5S16.3 7 18.2 7zM21.7 4.3h.8V1.5h-2.8v.8h2zM14.7 2.3h1.9v-.8h-2.7v2.8h.8zM5.4 17.9c-.2-.1-.4-.1-.8-.1H3.4v1.7h-.2v.4h.3v.4h-.3v.4h.3v1H4v-1h1.5v-.4H3.9v-.4h1.2c.2 0 .3-.1.4-.2l.3-.3c.1-.2.2-.4.2-.6 0-.2-.1-.4-.2-.6-.1-.2-.2-.3-.4-.3zm0 1.2c0 .1-.1.1-.2.2-.1 0-.2.1-.3.1h-1v-1.3h1c.1 0 .2.1.3.1.1 0 .1.1.2.2 0 .1.1.2.1.3-.1.2-.1.3-.1.4zM11.6 17.9c-.2-.1-.4-.1-.8-.1H9.6v1.7h-.2v.4h.3v.4h-.3v.4h.3v1h.5v-1h1.5v-.4h-1.5v-.4h1.2c.2 0 .3-.1.4-.2l.3-.3c.1-.1.1-.3.1-.5s-.1-.4-.2-.6c-.1-.3-.2-.4-.4-.4zm0 1.2c0 .1-.1.1-.2.2-.1 0-.2.1-.3.1h-1v-1.3h1c.1 0 .2.1.3.1.1 0 .1.1.2.2 0 .1.1.2.1.3 0 .2-.1.3-.1.4zM18 17.9c-.2-.1-.4-.1-.8-.1H16v1.7h-.3v.4h.3v.4h-.3v.4h.3v1h.5v-1H18v-.4h-1.5v-.4h1.2c.2 0 .3-.1.4-.2l.3-.3c.1-.1.1-.3.1-.5s-.1-.4-.2-.6c0-.3-.2-.4-.3-.4zm-.1 1.2c0 .1-.1.1-.2.2-.1 0-.2.1-.3.1h-1v-1.3h1c.1 0 .2.1.3.1.1 0 .1.1.2.2 0 .1.1.2.1.3 0 .2 0 .3-.1.4z"/><path d="M17.1 11.6h.4V10h.4v1.2c0 .2.1.3.2.4l.3.3c.1.1.3.1.5.1s.4-.1.6-.2c.2-.1.3-.2.4-.4.1-.2.1-.4.1-.8V9.5h-1.7v-.2h-.4v.3h-.4v-.3h-.4v.3h-1v.4h1v1.6zm1.2-1.6h1.3v1c0 .1-.1.2-.1.3 0 .1-.1.1-.2.2-.1 0-.2.1-.3.1-.1 0-.2 0-.3-.1-.1 0-.1-.1-.2-.2 0-.1-.1-.2-.1-.3v-1z"/></symbol><symbol id="process04" viewBox="0 0 24 24"><path d="M14.4 8.8v3.6c0 .2.2.4.4.4h4.8c.1 0 .2 0 .2-.1.2-.1.2-.4.1-.6l-2-3.1-.1-.1c-.4-.4-.9-.6-1.4-.6h-1.6c-.2.1-.4.3-.4.5zm.8.4h1.2c.3 0 .6.1.8.3l1.6 2.5h-3.7V9.2zM14.8 13.6h2.4v.8h-2.4zM18.4 17.6c0 .7.5 1.2 1.2 1.2s1.2-.5 1.2-1.2-.5-1.2-1.2-1.2-1.2.5-1.2 1.2zm.8 0c0-.2.2-.4.4-.4s.4.2.4.4-.2.4-.4.4-.4-.2-.4-.4zM3.2 17.6c0 .7.5 1.2 1.2 1.2s1.2-.5 1.2-1.2-.5-1.2-1.2-1.2-1.2.5-1.2 1.2zm.8 0c0-.2.2-.4.4-.4s.4.2.4.4-.2.4-.4.4-.4-.2-.4-.4z"/><path d="M0 3.6v14c0 .9.7 1.6 1.6 1.6h.5c.2.3.4.5.7.7 1.3.9 3 .6 3.9-.7h10.6c.2.3.4.5.7.7 1.3.9 3 .6 3.9-.7h.5c.9 0 1.6-.7 1.6-1.6v-2.8c0-1.1 0-2.8-1.6-2.8-.4 0-.8-.2-1.2-.4L17.8 7l-.1-.1c-.4-.3-.8-.5-1.3-.5H14V3.6c0-.2-.2-.4-.4-.4H.4c-.2 0-.4.2-.4.4zm17.6 14c0-1.1.9-2 2-2s2 .9 2 2-.9 2-2 2-2-.9-2-2zm-13-2.8h9c.2 0 .4-.2.4-.4V7.2h2.5c.3 0 .5.1.8.3l3.4 4.6.1.1c.5.4 1.1.7 1.7.7.6 0 .8.4.8 2v2.8c0 .4-.4.8-.8.8h-.1c.2-.5.2-1.1 0-1.6-.4-1.5-2-2.3-3.5-1.9-1.5.4-2.3 2-1.9 3.5H7.1c.2-.5.2-1.1 0-1.6-.4-1.2-1.3-2-2.5-2.1zm-2.2 2.8c0-1.1.9-2 2-2s2 .9 2 2-.9 2-2 2-2-.9-2-2zM.8 14.8h3.3c-.2 0-.4.1-.6.1-1.5.4-2.3 2-1.9 3.5-.4 0-.8-.4-.8-.8v-2.8zM.8 4h12.4v10H.8V4z"/><path d="M2 4.8h10v.8H2zM2 6.4h10v.8H2zM2 8h10v.8H2zM2 9.6h10v.8H2z"/></symbol><symbol id="process05" viewBox="0 0 24 24"><path d="M4.6 12.4h1.5v.8H4.6v-.8zM17.8 12.4h1.5v.8h-1.5v-.8z"/><path d="M24 9.7C24 8.2 22.8 7 21.3 7h-1.2c0-.1.1-.3.1-.4V5c0-2.8-2.3-5-5-5H8.9c-2.8 0-5 2.3-5 5v1.5c0 .1 0 .3.1.4H2.7C1.2 7 0 8.2 0 9.7v3.5h.8v8.9c0 1.1.9 1.9 1.9 1.9h18.6c1.1 0 1.9-.9 1.9-1.9v-8.9h.8V9.7zM4.6 6.6V5C4.6 2.7 6.5.7 8.9.7h6.2c2.3 0 4.3 1.9 4.3 4.3v1.5c0 .3-.2.5-.4.5h-4.2c.2-.4.6-.8 1.1-.8h2.7v-.8c0-2.1-1.7-3.9-3.9-3.9H9.3c-2.1 0-3.9 1.7-3.9 3.9v.8h2.7c.5 0 .9.3 1.1.8H5c-.2 0-.4-.2-.4-.4zM10 7c-.2-.9-1-1.5-1.9-1.5H6.2c0-1.7 1.4-3.1 3.1-3.1h5.4c1.7 0 3.1 1.4 3.1 3.1h-1.9c-.9 0-1.7.7-1.9 1.5h-4zm12.5 15.1c0 .6-.5 1.2-1.2 1.2H2.7c-.6 0-1.2-.5-1.2-1.2v-8.9H3v.4c0 .6.5 1.2 1.2 1.2h2.3c.6 0 1.2-.5 1.2-1.2v-.4h8.5v.4c0 .6.5 1.2 1.2 1.2h2.3c.6 0 1.2-.5 1.2-1.2v-.4h1.5v8.9zM3.9 13.5V12c0-.2.2-.4.4-.4h2.3c.2 0 .4.2.4.4v1.5c0 .2-.2.4-.4.4H4.3c-.3 0-.4-.1-.4-.4zm13.1 0V12c0-.2.2-.4.4-.4h2.3c.2 0 .4.2.4.4v1.5c0 .2-.2.4-.4.4h-2.3c-.2 0-.4-.1-.4-.4zm6.2-1.1h-2.3V12c0-.6-.5-1.2-1.2-1.2h-2.3c-.6 0-1.2.5-1.2 1.2v.4H7.7V12c0-.6-.5-1.2-1.2-1.2H4.3c-.6 0-1.2.5-1.2 1.2v.4H.8V9.7c0-1.1.9-1.9 1.9-1.9h18.6c1.1 0 1.9.9 1.9 1.9v2.7z"/><path d="M18.4 15.5c-1.2 0-2.2.6-2.8 1.5H8.4c-.6-.9-1.6-1.5-2.8-1.5-.9 0-1.7.3-2.4 1l-.1.1v1.2h2l.3.8-.3.8h-2v1.2l.1.1c.6.6 1.5 1 2.4 1 1.2 0 2.2-.6 2.8-1.5h7.3c.6.9 1.6 1.5 2.8 1.5.9 0 1.7-.3 2.4-1l.1-.1v-1.2h-2l-.3-.8.3-.8h2v-1.2l-.1-.1c-.7-.7-1.6-1-2.5-1zm1.7 1.5h-1.7l-.7 1.5.7 1.5h1.7v.1c-.5.4-1.1.6-1.7.6-.9 0-1.8-.5-2.2-1.3l-.1-.2h-1.4v-.8h-.8v.8h-2.3v-.8h-.8v.8H8.5v-.8h-.8v1.1c-.4.8-1.3 1.3-2.2 1.3-.6 0-1.2-.2-1.7-.6v-.1h1.7l.7-1.5-.6-1.6H3.9v-.1c.5-.4 1.1-.6 1.7-.6.9 0 1.8.5 2.2 1.3l.1.2h1.4v.8h.8v-.8h2.3v.8h.8v-.8h2.3v.8h.8v-1.1c.4-.8 1.3-1.3 2.2-1.3.6 0 1.2.2 1.7.6v.2z"/></symbol><symbol id="search" viewBox="0 0 24 24"><path d="M23.4 20.6l-5.2-5.2s-.1 0-.1-.1c1-1.6 1.6-3.4 1.6-5.4 0-5.4-4.4-9.9-9.9-9.9S0 4.4 0 9.9c0 5.4 4.4 9.9 9.9 9.9 2 0 3.9-.6 5.4-1.6 0 0 0 .1.1.1l5.2 5.2c.8.8 2.1.8 2.8 0 .8-.9.8-2.1 0-2.9zM9.9 16.3c-3.6 0-6.4-2.9-6.4-6.4 0-3.6 2.9-6.4 6.4-6.4 3.6 0 6.4 2.9 6.4 6.4s-2.9 6.4-6.4 6.4z"/></symbol><symbol id="service01" viewBox="0 0 24 24"><path d="M23.1 18.8c-.3-1.6-1.3-2.8-2.8-3.3L17 14.4v-.5h-.8v.7l-2.7 5.1-2.7-5.1v-.7H10v.9l3.1 5.8v.7H8.5v.7h4.6v1.2H7.4l.3-2.5c.5-.3.8-.9.8-1.5v-.3h-.8v.3c0 .4-.2.7-.6.9l-.1.1-.4 3H3.9l.4-2.6-.8-.1-.5 3.4h21l-.9-5.1zm-9.2 4.4V22h4.6v-.8h-4.6v-.7l2.9-5.4 1.7.6v3.5c0 .6.3 1.2.8 1.5l.3 2.5h-5.7zm6.5 0l-.4-3-.2-.1c-.3-.2-.6-.5-.6-.9V16l.8.3c1.2.4 2.1 1.5 2.3 2.7l.7 4.2h-2.6z"/><path d="M6.9 8.5c0 1 .8 1.8 1.7 1.9.2.7.6 1.3 1.1 1.8l1.5 1.5c.4.4.8.6 1.4.6h1.8c.5 0 1-.2 1.4-.6l1.5-1.5c.5-.5.9-1.1 1.1-1.8 1-.1 1.7-.9 1.7-1.9 0-.4-.2-.8-.4-1.2h.8V5h-1.2C19 2.7 17.3.8 15.1.2V0H12v.2C9.7.8 8.1 2.7 7.8 5H6.6v2.3h.8c-.3.4-.5.8-.5 1.2zm.8 0c0-.5.3-.9.8-1.1v2.2c-.4-.2-.8-.6-.8-1.1zm10.1.7c0 .9-.4 1.8-1 2.5l-1.5 1.5c-.2.2-.5.3-.8.3h-1.8c-.3 0-.6-.1-.8-.3l-1.5-1.5c-.7-.7-1-1.5-1-2.5V7.3h8.5v1.9zm.7.4V7.4c.5.2.8.6.8 1.1 0 .5-.3.9-.8 1.1zM12 1v3.2h.8V.8h1.5v3.5h.8V1c1.8.6 3.1 2.1 3.4 4H8.6c.2-1.8 1.6-3.4 3.4-4zM7.3 6.6v-.8h12.4v.8H7.3z"/><path d="M15.8 3.5h.8v.8h-.8zM10.4 3.5h.8v.8h-.8zM3.5 19.7h2.2l.2-1c.1 0 .3-.1.4-.2l.8.6 1.5-1.5-.6-.8c.1-.1.1-.2.2-.4l1-.2V14l-1-.2-.3-.6-.7.4c.1.2.2.4.3.7l.1.2.8.2v.9l-.8.2-.1.2c-.1.2-.2.4-.3.7l-.1.2.5.7-.6.5-.7-.5-.2.1c-.2.2-.4.3-.6.3l-.2.1-.2.8h-.9l-.2-.8-.2-.1c-.2-.1-.4-.2-.7-.3l-.2-.1-.7.5-.9-.9-.5.5L2.1 19l.9-.5c.1.1.2.1.4.2l.1 1zM1.3 16.9l.7-.4c-.1-.2-.2-.4-.3-.7l-.1-.2-.8-.2v-.9l.8-.2.1-.2c.1-.2.2-.4.3-.7v-.1l-.5-.7.7-.6.7.5.2-.1c.2-.1.4-.2.7-.3L4 12l.2-.8h.9l.2.8.2.1c.2.1.4.2.7.3l.2.1.6-.5.9.9.5-.5L7.1 11l-.8.6c-.1-.1-.2-.1-.4-.2l-.2-1H3.5l-.2 1c-.1 0-.3.1-.4.2l-.8-.6-1.5 1.5.6.8c-.1.2-.2.3-.2.5L0 14v2.2l1 .2c.1.1.2.3.3.5z"/><path d="M4.6 13.1c-1.1 0-1.9.9-1.9 1.9s.9 2 1.9 2 1.9-.9 1.9-1.9-.8-2-1.9-2zm0 3.1c-.6 0-1.2-.5-1.2-1.2 0-.6.5-1.2 1.2-1.2s1.2.5 1.2 1.2-.5 1.2-1.2 1.2z"/></symbol><symbol id="service02" viewBox="0 0 24 24"><path d="M19.7 15.5H4.3C2 15.5 0 17.4 0 19.8S1.9 24 4.3 24h15.5c2.3 0 4.3-1.9 4.3-4.3s-2-4.2-4.4-4.2zm0 7.7H4.3c-1.9 0-3.5-1.6-3.5-3.5s1.6-3.5 3.5-3.5h15.5c1.9 0 3.5 1.6 3.5 3.5s-1.6 3.5-3.6 3.5z"/><path d="M19.7 17H4.3c-1.5 0-2.7 1.2-2.7 2.7s1.2 2.7 2.7 2.7h15.5c1.5 0 2.7-1.2 2.7-2.7S21.2 17 19.7 17zm0 4.7H4.3c-1.1 0-1.9-.9-1.9-1.9s.9-1.9 1.9-1.9h15.5c1.1 0 1.9.9 1.9 1.9s-.9 1.9-2 1.9zM4.6 12.8h6.2v1.9h.8V12h-1.2v-.8h.8V8.9h-7v2.3H5v.8H3.9v2.7h.8v-1.9zm5.1-3.1h.8v.8h-.8v-.8zm0 2.3H5.8v-.8h3.9v.8zM8.1 9.7h.8v.8h-.8v-.8zm-1.5 0h.8v.8h-.8v-.8zM5 9.7h.8v.8H5v-.8zM20.1 14.7V12h-.4v-1.5h-7V12h-.4v2.7h.8v-1.9h6.2v1.9h.8zM19 12h-5.4v-.8H19v.8zM19.7 7.4h-7v2.3h7V7.4zm-5.4 1.5h-.8v-.8h.8v.8zm1.6 0h-.8v-.8h.8v.8zm1.5 0h-.8v-.8h.8v.8zm1.6 0h-.8v-.8h.8v.8zM12.8 3.9h2.3v.8c-.9.2-1.5 1-1.5 1.9h.8c0-.6.5-1.2 1.2-1.2H17c.6 0 1.2.5 1.2 1.2h.8c0-.9-.7-1.7-1.5-1.9v-.8h2.3V2.3h1.5V0H11.2v2.3h1.5v1.6zm3.8.7h-.8v-.7h.8v.7zM19 3.1h-5.4v-.8H19v.8zm-7-1.6V.8h8.5v.8H12z"/><path d="M19.7 18.6c-.6 0-1.2.5-1.2 1.2 0 .6.5 1.2 1.2 1.2.6 0 1.2-.5 1.2-1.2s-.5-1.2-1.2-1.2zm0 1.5c-.2 0-.4-.2-.4-.4s.2-.4.4-.4.4.2.4.4-.1.4-.4.4zM16.6 18.6c-.6 0-1.2.5-1.2 1.2 0 .6.5 1.2 1.2 1.2.6 0 1.2-.5 1.2-1.2s-.5-1.2-1.2-1.2zm0 1.5c-.2 0-.4-.2-.4-.4s.2-.4.4-.4.4.2.4.4-.1.4-.4.4zM13.5 18.6c-.6 0-1.2.5-1.2 1.2 0 .6.5 1.2 1.2 1.2s1.2-.5 1.2-1.2-.5-1.2-1.2-1.2zm0 1.5c-.2 0-.4-.2-.4-.4s.2-.4.4-.4.4.2.4.4-.1.4-.4.4zM10.5 18.6c-.6 0-1.2.5-1.2 1.2 0 .6.5 1.2 1.2 1.2s1.2-.5 1.2-1.2c-.1-.7-.6-1.2-1.2-1.2zm0 1.5c-.2 0-.4-.2-.4-.4s.2-.4.4-.4.4.2.4.4-.2.4-.4.4zM7.4 18.6c-.6 0-1.2.5-1.2 1.2 0 .6.5 1.2 1.2 1.2s1.2-.5 1.2-1.2c-.1-.7-.6-1.2-1.2-1.2zm0 1.5c-.3 0-.4-.1-.4-.4s.2-.4.4-.4.4.2.4.4-.2.4-.4.4zM4.3 18.6c-.6 0-1.2.5-1.2 1.2 0 .6.5 1.2 1.2 1.2s1.2-.5 1.2-1.2c-.1-.7-.6-1.2-1.2-1.2zm0 1.5c-.2 0-.4-.2-.4-.4s.2-.4.4-.4.4.2.4.4-.2.4-.4.4z"/></symbol><symbol id="service03" viewBox="0 0 24 24"><path d="M20.1 16.3h-.8v2.3H7.7v3.1c0 .9-.7 1.5-1.5 1.5s-1.5-.7-1.5-1.5V2.3c0-.6-.2-1.1-.6-1.5h13.8c.9 0 1.5.7 1.5 1.5v.8h.8v-.8c0-1.3-1-2.3-2.3-2.3H2.3C1 0 0 1 0 2.3v3.9h3.9v15.5c0 1.3 1 2.3 2.3 2.3h15.5c1.3 0 2.3-1 2.3-2.3v-3.1h-3.9v-2.3zM3.9 5.4H.8V2.3c0-.9.7-1.5 1.5-1.5s1.5.7 1.5 1.5v3.1zm19.3 14v2.3c0 .9-.7 1.5-1.5 1.5H7.9c.4-.4.6-1 .6-1.5v-2.3h14.7z"/><path d="M22.1 7.8c-.1-.3-.2-.6-.4-.9l-.7.4c.2.3.3.7.4 1l.1.2 1.7.3v1.7l-1.7.3-.1.2c-.1.4-.2.7-.4 1l-.1.2 1 1.4-1.2 1.2-1.4-1-.2.1c-.3.2-.7.3-1 .4l-.2.1-.3 1.7h-1.7l-.3-1.7-.2-.1c-.4-.1-.7-.2-1-.4l-.4.1-1.4 1-1.4-1.4-.5.5 1.9 1.9 1.6-1c.2.1.5.2.7.3l.4 1.9h3l.4-1.9c.3-.1.5-.2.7-.3l1.6 1 2.1-2.1-1-1.6c.1-.2.2-.5.3-.7l1.9-.4v-3l-2.2-.4zM18.5 4.2l-.4-1.9h-3l-.4 1.9c-.3.1-.5.2-.7.3l-1.6-1-2.1 2.1 1 1.6c-.1.2-.2.5-.3.7l-1.7.3v3l1.9.4c.1.3.2.6.4.9l.7-.4c-.2-.3-.3-.7-.4-1l-.1-.2-1.7-.3V8.8l1.7-.3.1-.2c.1-.4.2-.7.4-1l.1-.2-1-1.4 1.2-1.2 1.4 1 .2-.1c.3-.2.7-.3 1-.4l.2-.1.3-1.7h1.7l.3 1.7.2.1c.4.1.7.2 1 .4l.2.1 1.4-1 1.4 1.4.5-.5-1.9-1.9-1.6 1c.1-.1-.2-.2-.4-.3z"/><path d="M16.6 5.4c-2.3 0-4.3 1.9-4.3 4.3s1.9 4.3 4.3 4.3 4.3-1.9 4.3-4.3-1.9-4.3-4.3-4.3zm0 7.8c-1.9 0-3.5-1.6-3.5-3.5s1.6-3.5 3.5-3.5 3.5 1.6 3.5 3.5-1.5 3.5-3.5 3.5zM7 8.1c-.9 0-1.5.7-1.5 1.5s.7 1.5 1.5 1.5 1.5-.7 1.5-1.5S7.8 8.1 7 8.1zm0 2.4c-.4 0-.8-.3-.8-.8 0-.4.3-.8.8-.8s.8.3.8.8c-.1.4-.4.8-.8.8zM7 3.5c-.9 0-1.6.7-1.6 1.5S6.1 6.6 7 6.6 8.5 5.9 8.5 5 7.8 3.5 7 3.5zm0 2.3c-.5 0-.8-.3-.8-.8s.3-.7.8-.7.7.3.7.7-.3.8-.7.8zM7 12.8c-.9 0-1.5.7-1.5 1.5 0 .9.7 1.5 1.5 1.5s1.5-.7 1.5-1.5-.7-1.5-1.5-1.5zm0 2.3c-.4 0-.8-.3-.8-.8 0-.4.3-.8.8-.8s.8.3.8.8c-.1.4-.4.8-.8.8z"/></symbol><symbol id="service04" viewBox="0 0 24 24"><path d="M9.2 12.9c.3-.1.5-.2.7-.3l1.6 1 2.1-2.1-1-1.6c.1-.2.2-.5.3-.7l1.9-.4v-3l-1.9-.4c-.1-.3-.2-.6-.4-.9l-.7.4c.2.3.3.7.4 1l.1.2 1.7.3v1.7l-1.7.3-.1.2c-.1.4-.2.7-.4 1l-.1.4 1 1.4-1.2 1.2-1.4-1-.2.1c-.3.2-.7.3-1 .4l-.2.1-.3 1.7H6.5l-.3-1.7-.2-.1c-.4-.1-.7-.2-1-.4l-.2-.1-1.4 1L2 11.2l-.5.5 1.9 1.9 1.6-1c.2.1.5.2.7.3l.4 1.9h3l.1-1.9zM2.3 10.2l.7-.4c-.2-.3-.3-.7-.4-1l-.1-.3-1.7-.3V6.5l1.7-.3.1-.2c.1-.4.2-.7.4-1l.1-.2-1-1.4 1.2-1.2 1.4 1 .2-.1c.3-.2.7-.3 1-.4l.2-.1.3-1.7h1.7l.3 1.7.2.1c.4.1.7.2 1 .4h.4l1.4-1 1.4 1.4.6-.5-1.9-1.9-1.6 1c-.2-.1-.4-.2-.7-.2L8.8 0h-3l-.3 1.9c-.2 0-.5.1-.7.3l-1.6-1-2.1 2 1 1.6c-.1.2-.2.5-.2.7L0 5.9v3l1.9.4c.1.2.2.6.4.9z"/><path d="M11.6 7.4c0-2.3-1.9-4.3-4.3-4.3v.8c1.9 0 3.5 1.6 3.5 3.5h.8zM3.9 7.4h-.8c0 2.3 1.9 4.3 4.3 4.3v-.8c-2-.1-3.5-1.6-3.5-3.5z"/><path d="M10.1 7.4c0-1.5-1.2-2.7-2.7-2.7S4.6 5.9 4.6 7.4s1.2 2.7 2.7 2.7 2.8-1.3 2.8-2.7zm-4.7 0c0-1.1.9-1.9 1.9-1.9s1.9.9 1.9 1.9-.8 1.9-1.8 1.9-2-.9-2-1.9zM15 17.4l-.7.4c.1.2.2.5.3.7l.1.2.8.1v.9l-.8.1-.1.2c-.1.3-.2.5-.3.7l-.1.2.5.7-.7.8-.7-.5-.2.1c-.2.1-.5.2-.7.3l-.2.1-.1.8h-.9l-.2-.8-.2-.1c-.3-.1-.5-.2-.7-.3l-.2-.1-.7.5-.9-.9-.5.5 1.3 1.3.8-.6c.1.1.3.1.4.2l.2 1h2.2l.2-1c.1 0 .3-.1.4-.2l.8.6 1.6-1.6-.6-.7c.1-.1.1-.3.2-.4l1-.2v-2.2l-1-.2c-.1-.1-.2-.4-.3-.6zM8.2 21.3l.7-.4c-.1-.2-.2-.5-.3-.7l-.1-.2-.8-.1V19l.8-.1.1-.2c.1-.3.2-.5.3-.7l.1-.4-.5-.7.6-.6.7.5.2-.1c.2-.1.5-.2.7-.3l.2-.1.1-.8h.9l.1.8.2.1c.3.1.5.2.7.3l.2.1.7-.5.9.9.5-.5-1.3-1.3-.8.6c-.1-.1-.3-.1-.4-.2l-.2-1h-2.2l-.2 1c-.1 0-.3.1-.4.2l-.8-.6L7.3 17l.6.8c.2 0 .1.1.1.3l-1 .2v2.2l1 .2c0 .1.1.4.2.6z"/><path d="M11.6 17.4c-1.1 0-1.9.9-1.9 1.9 0 1.1.9 1.9 1.9 1.9s1.9-.9 1.9-1.9c0-1-.8-1.9-1.9-1.9zm0 3.1c-.6 0-1.2-.5-1.2-1.2 0-.6.5-1.2 1.2-1.2s1.2.5 1.2 1.2-.5 1.2-1.2 1.2zM24 12.3v-2.2l-1-.1-.3-.6-.7.3c.1.2.2.5.3.7l.1.2.8.1v.9l-.8.1-.1.3c-.1.3-.2.5-.3.7l-.1.3.5.7-.6.6-.7-.5-.2.1c-.2.1-.5.2-.7.3l-.2.1-.1.8H19l-.1-.8-.2-.1c-.3-.1-.5-.2-.7-.3l-.2-.1-.7.5-.9-.9-.7.6 1.3 1.3.8-.6c.1.1.3.1.4.2l.2 1h2.2l.2-1c.1 0 .3-.1.4-.2l.8.6 1.6-1.6-.6-.8c.1-.1.1-.3.2-.4l1-.2zM15.7 10l-1 .2v2.2l1 .2.3.6.7-.4c-.1-.2-.2-.5-.3-.7l-.1-.2-.8-.1v-.9l.8-.1.1-.2c.1-.3.2-.5.3-.7l.1-.2-.5-.7.6-.6.7.5.2-.1c.2-.1.5-.2.7-.3l.2-.1.1-.8h.9l.1.8.2.1c.3.1.5.2.7.3l.2.1.7-.5 1 .6.5-.5-1.3-1.3-.8.5c-.1-.1-.3-.1-.4-.2l-.2-1h-2.2l-.2 1c-.1 0-.3.1-.4.2l-.8-.6-1.6 1.6.6.8c0 .2 0 .3-.1.5z"/><path d="M19.4 9.3c-1.1 0-1.9.9-1.9 1.9s.9 1.9 1.9 1.9c1.1 0 1.9-.9 1.9-1.9s-.9-1.9-1.9-1.9zm0 3.1c-.6 0-1.2-.5-1.2-1.2s.5-1.2 1.2-1.2c.6 0 1.2.5 1.2 1.2s-.6 1.2-1.2 1.2z"/></symbol><symbol id="sheer" viewBox="0 0 60 22"><path d="M38.9 11.5c0 .3.1.5.1.7.4 1.9 1.9 3.1 3.8 3.3 1.7.1 3-.5 4-1.9.5-.7 1.3-.8 1.9-.2.4.3.4.7.1 1.1-.2.2-.3.4-.5.6-.6.9-1.5 1.5-2.5 1.8-1.7.6-3.4.7-5 .1-2.2-.8-3.6-2.5-4-4.8-.2-1.4-.1-2.9.6-4.2 1-1.9 2.5-3 4.5-3.3 1.4-.2 2.8-.1 4 .5 1.8.9 2.9 2.3 3.4 4.3.1.5.2 1.1.2 1.6 0 .3-.1.5-.5.5h-9.8c0-.1-.2-.1-.3-.1zm8.5-2C47.1 7.7 45 6.2 43 6.3c-2 .1-4 1.7-4.1 3.2h8.5zM24.9 11.5c0 .2 0 .3.1.4.4 2.1 2.1 3.5 4.1 3.5 1.6 0 2.8-.6 3.7-1.9.5-.7 1.4-.8 2-.2.3.3.3.7.1 1-.1.2-.3.3-.4.5-.7 1-1.6 1.7-2.8 2-1.7.5-3.4.6-5 0-2.3-.9-3.6-2.7-3.9-5.2-.1-1.2 0-2.4.5-3.5.9-2.1 2.5-3.4 4.8-3.7 1.2-.2 2.4-.1 3.6.4 2 .9 3.2 2.4 3.7 4.6.1.5.1 1 .2 1.5 0 .4-.1.5-.5.5H25.5c-.2.1-.4.1-.6.1zm8.6-2.1c-.3-1.7-2.3-3.2-4.3-3.1-1.9.1-4 1.6-4.1 3.1h8.4zM55.9 12.4l.3.3c1.1.9 2.2 1.8 3.3 2.8.1.1.2.1.2.2.4.4.4 1 .1 1.4-.3.4-.9.5-1.3.1-.8-.6-1.5-1.3-2.2-1.9-1.1-.9-2.1-1.8-3.2-2.7-.1-.1-.2-.2-.4-.3v8.6c0 .6-.5 1-1 .9-.5 0-.9-.4-.9-1v-.4V5.3v-.5c0-.4 0-.4.4-.4H56c1.9-.1 4 1.4 4.2 3.6.2 2-1.2 3.8-3.2 4.2-.5.1-.8.2-1.1.2zm-3.4-1.5H55.6c.3 0 .5 0 .8-.1.9-.3 1.5-.8 1.8-1.7.4-1.6-.8-3-2.4-3H52.6c-.1 1.6-.1 3.2-.1 4.8zM19.6 11.5h-5.5V16.1c0 .2 0 .3-.1.5-.1.4-.6.7-1 .7-.5 0-.8-.4-.9-.9v-.3-15c0-.2 0-.4.1-.6.2-.4.6-.7 1.1-.6.4.1.8.4.8.9v8.6c.3.1 5.1.1 5.4 0V9 5.6v-.3c0-.5.4-.9.9-.9s.9.3 1 .9V16.4c-.1.5-.5.9-1 .9s-.9-.4-1-.9v-.3V12c.2-.1.2-.3.2-.5zM5.5 17.4c-1.3 0-2.5-.3-3.7-1-.5-.3-.9-.6-1.3-1.1-.2-.2-.3-.5-.5-.7-.2-.4-.1-.8.2-1.1.4-.4.9-.5 1.4-.2.4.2.6.5.8.7l.6.6c.6.6 1.3.9 2.2 1 .8.1 1.6.1 2.3-.2.3-.1.6-.3.9-.5.6-.5.7-1.3 0-1.8-.3-.2-.7-.4-1-.6-.9-.4-1.8-.6-2.7-.9-.8-.2-1.5-.4-2.2-.7-.3-.1-.6-.2-.8-.4C1 10.1.6 9.5.5 8.7.1 7.3.7 6 2.2 5.3c2.2-1.1 4.4-1.1 6.5.1.4.3.8.6 1.1.9.3.2.4.5.5.9.2.6-.1.9-.6 1-.4.1-.8 0-1.2-.4.1-.1 0-.2-.1-.2-.5-.8-1.2-1.2-2.1-1.4-.9-.1-1.8-.1-2.6.2-.3.1-.6.3-.9.5-.6.5-.6 1.2 0 1.7.4.4.8.6 1.3.8 1.1.3 2.1.5 3.2.8.7.2 1.4.4 2 .7.8.4 1.4 1 1.6 2 .2 1.1 0 2.1-.9 2.9-1 .9-2.1 1.4-3.4 1.6-.4-.1-.7 0-1.1 0z"/></symbol><symbol id="user" viewBox="0 0 24 24"><path d="M12 16.5c3.7 0 6.8-3.7 6.8-8.3S15.7 0 12 0c-1.8 0-3.6.9-4.8 2.5C5.9 4 5.3 6.1 5.3 8.3c0 4.5 3 8.2 6.7 8.2zm0-15c2.9 0 5.3 3 5.3 6.7S14.9 15 12 15s-5.3-3-5.3-6.8c0-3.7 2.4-6.7 5.3-6.7zM17.3 15c-.4 0-.8.3-.8.8s.3.8.8.8c2.9 0 5.3 2.4 5.3 5.3 0 .4-.3.8-.8.8H2.3c-.4 0-.8-.3-.8-.8 0-2.9 2.4-5.3 5.3-5.3.4 0 .8-.3.8-.8s-.4-.8-.8-.8C3 15 0 18 0 21.8 0 23 1 24 2.3 24h19.5c1.2 0 2.3-1 2.3-2.3C24 18 21 15 17.3 15z"/></symbol></svg>