<svg version="1.1" id="Слой_1" xmlns="http://www.w3.org/2000/svg" x="0" y="0" viewBox="0 0 195 51" xml:space="preserve">
    <style>
        .st2{fill:#fff}
    </style>
    <path d="M24.3 1.4c5.4 0 10.4 1.8 14.4 4.8-.2.4-.2.9-.2 1.3 0 2.1 1.7 3.8 3.8 3.8.5 0 .9-.1 1.4-.3 3.1 4.1 4.9 9.1 4.9 14.6C48.5 39.1 37.7 50 24.3 50S0 39.1 0 25.7C0 20.1 1.9 15 5.1 10.9c.4.6 1.2 1.1 2 1.1 1.4 0 2.5-1.1 2.5-2.5 0-.9-.5-1.7-1.2-2.1 4.2-3.7 9.8-6 15.9-6zm0 16c4.6 0 8.4 3.7 8.4 8.4 0 4.6-3.7 8.4-8.4 8.4-4.6 0-8.4-3.7-8.4-8.4s3.7-8.4 8.4-8.4z" fill-rule="evenodd" clip-rule="evenodd" fill="#72ae48"/>
    <path d="M24.3 12.9c2.8 0 5.4.9 7.5 2.4l3.8-4.2c-.6-1.1-.9-2.3-.9-3.6 0-4.2 3.4-7.5 7.5-7.5s7.5 3.4 7.5 7.5c0 4.2-3.4 7.5-7.5 7.5-1.4 0-2.7-.4-3.8-1l-3.8 4.2c1.5 2.1 2.4 4.7 2.4 7.5 0 7.1-5.7 12.8-12.8 12.8-7.1 0-12.8-5.7-12.8-12.8 0-2.7.8-5.2 2.2-7.2L9 13.9c-.6.3-1.3.4-2 .4-2.7 0-4.9-2.2-4.9-4.9S4.3 4.5 7 4.5s4.9 2.2 4.9 4.9c0 .8-.2 1.6-.5 2.2l4.4 4.4c2.3-1.9 5.2-3.1 8.5-3.1zM7.1 7c1.4 0 2.5 1.1 2.5 2.5S8.5 12 7.1 12s-2.5-1.1-2.5-2.5S5.7 7 7.1 7zm35.1-3.3c2.1 0 3.8 1.7 3.8 3.8 0 2.1-1.7 3.8-3.8 3.8-2.1 0-3.8-1.7-3.8-3.8 0-2.1 1.7-3.8 3.8-3.8zM24.3 17.9c4.3 0 7.8 3.5 7.8 7.8s-3.5 7.8-7.8 7.8-7.8-3.5-7.8-7.8c-.1-4.3 3.4-7.8 7.8-7.8z" fill-rule="evenodd" clip-rule="evenodd" fill="#fff"/>
    <path class="st2" d="M60.3 22H62V8.4h8.5V22h1.7V6.9h-12V22h.1zm16.3 0h1.7v-5.3H82c3.2 0 6-1.7 6-5 0-3-2.3-4.9-5.7-4.9h-5.7V22zm1.7-6.9V8.5h3.8c2.4 0 4.1 1.1 4.1 3.3 0 2-1.6 3.4-4.2 3.4h-3.7v-.1zm19.8 7.2c4.6 0 7.8-3.7 7.8-7.8 0-4.2-3.1-7.8-7.7-7.8s-7.8 3.7-7.8 7.8c0 4.2 3.1 7.8 7.7 7.8zm0-1.6c-3.5 0-6-2.8-6-6.3s2.5-6.3 5.9-6.3 6 2.8 6 6.3c.1 3.5-2.4 6.3-5.9 6.3zm9.4 4.7h1.5l.3-3.4h12.3v3.4h1.4l.3-4.9h-2V6.9h-9.9v2.6c0 4.9-.8 8.6-2.3 11h-1.6v4.9zm3.5-4.9c1.3-2.1 2-6.1 2-10.1v-2h6.6v12H111v.1zm14.5 1.5h3.3v-9.8l4.2 6.4h.1l4.3-6.5V22h3.3V6.9H137l-4 6.4-4-6.4h-3.6V22h.1zm17.5 0h3.4l1.4-3.4h6.4l1.4 3.4h3.5l-6.5-15.3h-3.1L143 22zm5.9-6.3l2-4.9 2 4.9h-4zm33.3-8.8h-3.3V19h-5.4V6.9h-3.3V19h-5.4V6.9h-3.3V22h20.8V6.9h-.1zM63.6 45.1h3.3V33h4.6v-3H58.9v3h4.6v12.1h.1zm10.5 0h11.5v-3h-8.2V39h7.1v-3h-7.1v-3.1h8.1v-3H74.1v15.2zm13.3 0h3.8l3.4-5.2 3.4 5.2h3.9l-5.3-7.8 5.1-7.4h-3.8l-3.2 4.9-3.2-4.8h-3.9l5.1 7.4-5.3 7.7zm24.3.3c2.8 0 4.5-1 6.1-2.6l-1.1-1.2c-1.5 1.4-2.8 2.2-4.9 2.2-3.3 0-5.9-2.7-5.9-6.3 0-3.5 2.5-6.3 5.9-6.3 2.1 0 3.5.9 4.8 2.1l1.1-1.2c-1.5-1.4-3.1-2.4-5.9-2.4-4.5 0-7.7 3.6-7.7 7.8 0 4.4 3.2 7.9 7.6 7.9zm9-.3h11.1v-1.6h-9.4v-5.3h8.3v-1.6h-8.3v-5.2h9.2V30h-11v15.1h.1zm14.5 0h1.7v-5.3h3.7c3.2 0 6-1.7 6-5 0-3-2.3-4.9-5.7-4.9h-5.7v15.2zm1.7-6.9v-6.7h3.8c2.4 0 4.1 1.1 4.1 3.3 0 2-1.6 3.4-4.2 3.4h-3.7zm12.8 6.9h6.7c3.3 0 5.5-1.5 5.5-4.1 0-2.1-1.5-3.2-3.2-3.7 1.2-.5 2.4-1.5 2.4-3.5 0-1-.3-1.8-1-2.5-.8-.9-2.2-1.3-4-1.3h-6.5v15.1h.1zm1.7-1.5v-5.3h4.8c2.6 0 4 1 4 2.6 0 1.7-1.4 2.8-3.7 2.8h-5.1v-.1zm0-6.9v-5.2h4.6c2.2 0 3.4 1 3.4 2.5 0 1.8-1.4 2.8-3.5 2.8h-4.5v-.1zm13.9 8.4h1.7l9-12.6v12.6h1.7V30h-1.6L167 42.6V30h-1.7v15.1zm23.6.3c2.8 0 4.5-1 6.1-2.6l-1.1-1.2c-1.5 1.4-2.8 2.2-4.9 2.2-3.3 0-5.9-2.7-5.9-6.3 0-3.5 2.5-6.3 5.9-6.3 2.1 0 3.5.9 4.8 2.1l1.1-1.2c-1.5-1.4-3.1-2.4-5.9-2.4-4.5 0-7.7 3.6-7.7 7.8 0 4.4 3.3 7.9 7.6 7.9z"/>
    <path class="st2" d="M186.4 11.9h1.2V7.7h1.6V6.6h-4.4v1.1h1.6v4.2zm3.1 1.1h1l.1-1.1h3.3V13h1l.2-2.1h-.6V6.6h-3.8v.6c0 1.8-.2 2.7-.6 3.6h-.5V13h-.1zm3.7-5.3v3.2h-2c.3-.7.5-1.5.5-2.6v-.6h1.5z"/>
</svg>
