<svg xmlns="http://www.w3.org/2000/svg" viewBox="0 0 50 50">
    <path d="M24.5 1.4c5.4 0 10.4 1.8 14.4 4.8-.2.4-.2.9-.2 1.3 0 2.1 1.7 3.8 3.8 3.8.5 0 .9-.1 1.4-.3 3.1 4.1 4.9 9.1 4.9 14.6C48.8 39.1 37.9 50 24.5 50S.2 39.1.2 25.7c0-5.6 1.9-10.8 5.1-14.9.4.6 1.2 1.1 2 1.1 1.4 0 2.5-1.1 2.5-2.5 0-.9-.5-1.7-1.2-2.1 4.2-3.6 9.8-5.9 15.9-5.9zm0 16c4.6 0 8.4 3.7 8.4 8.4 0 4.6-3.7 8.4-8.4 8.4-4.6 0-8.4-3.7-8.4-8.4s3.8-8.4 8.4-8.4z" fill-rule="evenodd" clip-rule="evenodd" fill="#72ae48"/>
    <path d="M24.5 12.9c2.8 0 5.4.9 7.5 2.4l3.8-4.2c-.6-1.1-.9-2.3-.9-3.5 0-4.2 3.4-7.5 7.5-7.5S50 3.4 50 7.5c0 4.2-3.4 7.5-7.5 7.5-1.4 0-2.7-.4-3.8-1l-3.8 4.2c1.5 2.1 2.4 4.7 2.4 7.5 0 7.1-5.7 12.8-12.8 12.8-7.1 0-12.8-5.7-12.8-12.8 0-2.7.8-5.2 2.2-7.2l-4.6-4.6c-.6.3-1.3.4-2 .4-2.7 0-4.9-2.2-4.9-4.9s2.2-4.9 4.9-4.9 4.9 2.2 4.9 4.9c0 .8-.2 1.6-.5 2.2l4.4 4.4c2.2-1.9 5.1-3.1 8.4-3.1zM7.3 7c1.4 0 2.5 1.1 2.5 2.5S8.7 12 7.3 12s-2.5-1.1-2.5-2.5S5.9 7 7.3 7zm35.2-3.3c2.1 0 3.8 1.7 3.8 3.8 0 2.1-1.7 3.8-3.8 3.8-2.1 0-3.8-1.7-3.8-3.8 0-2.1 1.7-3.8 3.8-3.8zm-18 14.2c4.3 0 7.8 3.5 7.8 7.8s-3.5 7.8-7.8 7.8-7.8-3.5-7.8-7.8c-.1-4.3 3.4-7.8 7.8-7.8z" fill-rule="evenodd" clip-rule="evenodd" fill="#484a57"/>
</svg>
