<?xml version="1.0" encoding="utf-8"?>
<!-- Generator: Adobe Illustrator 22.1.0, SVG Export Plug-In . SVG Version: 6.00 Build 0)  -->
<svg version="1.1" id="Слой_1" xmlns="http://www.w3.org/2000/svg" xmlns:xlink="http://www.w3.org/1999/xlink" x="0px" y="0px"
	 viewBox="0 0 195 51" style="enable-background:new 0 0 195 51;" xml:space="preserve">
<style type="text/css">
	.st0{fill-rule:evenodd;clip-rule:evenodd;fill:#72AE48;}
	.st1{fill-rule:evenodd;clip-rule:evenodd;fill:#FFFFFF;}
	.st2{fill:#FFFFFF;}
</style>
<path class="st0" d="M24.3,1.4c5.4,0,10.4,1.8,14.4,4.8c-0.2,0.4-0.2,0.9-0.2,1.3c0,2.1,1.7,3.8,3.8,3.8c0.5,0,0.9-0.1,1.4-0.3
	c3.1,4.1,4.9,9.1,4.9,14.6C48.5,39.1,37.7,50,24.3,50C10.9,50,0,39.1,0,25.7C0,20.1,1.9,15,5.1,10.9c0.4,0.6,1.2,1.1,2,1.1
	c1.4,0,2.5-1.1,2.5-2.5c0-0.9-0.5-1.7-1.2-2.1C12.6,3.7,18.2,1.4,24.3,1.4L24.3,1.4z M24.3,17.4c4.6,0,8.4,3.7,8.4,8.4
	c0,4.6-3.7,8.4-8.4,8.4c-4.6,0-8.4-3.7-8.4-8.4C15.9,21.1,19.6,17.4,24.3,17.4L24.3,17.4z"/>
<path class="st1" d="M24.3,12.9c2.8,0,5.4,0.9,7.5,2.4l3.8-4.2C35,10,34.7,8.8,34.7,7.5c0-4.2,3.4-7.5,7.5-7.5s7.5,3.4,7.5,7.5
	c0,4.2-3.4,7.5-7.5,7.5c-1.4,0-2.7-0.4-3.8-1l-3.8,4.2c1.5,2.1,2.4,4.7,2.4,7.5c0,7.1-5.7,12.8-12.8,12.8c-7.1,0-12.8-5.7-12.8-12.8
	c0-2.7,0.8-5.2,2.2-7.2l-4.6-4.6c-0.6,0.3-1.3,0.4-2,0.4c-2.7,0-4.9-2.2-4.9-4.9c0-2.7,2.2-4.9,4.9-4.9c2.7,0,4.9,2.2,4.9,4.9
	c0,0.8-0.2,1.6-0.5,2.2l4.4,4.4C18.1,14.1,21,12.9,24.3,12.9L24.3,12.9z M7.1,7c1.4,0,2.5,1.1,2.5,2.5c0,1.4-1.1,2.5-2.5,2.5
	c-1.4,0-2.5-1.1-2.5-2.5C4.6,8.1,5.7,7,7.1,7L7.1,7z M42.2,3.7c2.1,0,3.8,1.7,3.8,3.8c0,2.1-1.7,3.8-3.8,3.8c-2.1,0-3.8-1.7-3.8-3.8
	C38.4,5.4,40.1,3.7,42.2,3.7L42.2,3.7z M24.3,17.9c4.3,0,7.8,3.5,7.8,7.8c0,4.3-3.5,7.8-7.8,7.8c-4.3,0-7.8-3.5-7.8-7.8
	C16.4,21.4,19.9,17.9,24.3,17.9L24.3,17.9z"/>
<path class="st2" d="M60.3,22h1.7V8.4h8.5V22h1.7V6.9h-12V22L60.3,22z M76.6,22h1.7v-5.3H82c3.2,0,6-1.7,6-5c0-3-2.3-4.9-5.7-4.9
	h-5.7V22L76.6,22z M78.3,15.1V8.5h3.8c2.4,0,4.1,1.1,4.1,3.3c0,2-1.6,3.4-4.2,3.4H78.3L78.3,15.1z M98.1,22.3c4.6,0,7.8-3.7,7.8-7.8
	c0-4.2-3.1-7.8-7.7-7.8c-4.6,0-7.8,3.7-7.8,7.8C90.4,18.7,93.5,22.3,98.1,22.3L98.1,22.3z M98.1,20.7c-3.5,0-6-2.8-6-6.3
	c0-3.5,2.5-6.3,5.9-6.3s6,2.8,6,6.3C104.1,17.9,101.6,20.7,98.1,20.7L98.1,20.7z M107.5,25.4h1.5l0.3-3.4h12.3v3.4h1.4l0.3-4.9h-2
	V6.9h-9.9v2.6c0,4.9-0.8,8.6-2.3,11h-1.6V25.4L107.5,25.4z M111,20.5c1.3-2.1,2-6.1,2-10.1v-2h6.6v12H111L111,20.5z M125.5,22h3.3
	v-9.8l4.2,6.4h0.1l4.3-6.5V22h3.3V6.9H137l-4,6.4l-4-6.4h-3.6V22L125.5,22z M143,22h3.4l1.4-3.4h6.4l1.4,3.4h3.5l-6.5-15.3h-3.1
	L143,22L143,22z M148.9,15.7l2-4.9l2,4.9H148.9L148.9,15.7z M182.2,6.9h-3.3V19h-5.4V6.9h-3.3V19h-5.4V6.9h-3.3V22h20.8V6.9
	L182.2,6.9z M63.6,45.1h3.3V33h4.6V30H58.9V33h4.6V45.1L63.6,45.1z M74.1,45.1h11.5v-3h-8.2V39h7.1v-3h-7.1v-3.1h8.1v-3H74.1V45.1
	L74.1,45.1z M87.4,45.1h3.8l3.4-5.2l3.4,5.2h3.9l-5.3-7.8l5.1-7.4h-3.8l-3.2,4.9L91.5,30h-3.9l5.1,7.4L87.4,45.1L87.4,45.1z
	 M111.7,45.4c2.8,0,4.5-1,6.1-2.6l-1.1-1.2c-1.5,1.4-2.8,2.2-4.9,2.2c-3.3,0-5.9-2.7-5.9-6.3c0-3.5,2.5-6.3,5.9-6.3
	c2.1,0,3.5,0.9,4.8,2.1l1.1-1.2c-1.5-1.4-3.1-2.4-5.9-2.4c-4.5,0-7.7,3.6-7.7,7.8C104.1,41.9,107.3,45.4,111.7,45.4L111.7,45.4z
	 M120.7,45.1h11.1v-1.6h-9.4v-5.3h8.3v-1.6h-8.3v-5.2h9.2V30h-11V45.1L120.7,45.1z M135.2,45.1h1.7v-5.3h3.7c3.2,0,6-1.7,6-5
	c0-3-2.3-4.9-5.7-4.9h-5.7V45.1L135.2,45.1z M136.9,38.2v-6.7h3.8c2.4,0,4.1,1.1,4.1,3.3c0,2-1.6,3.4-4.2,3.4H136.9L136.9,38.2z
	 M149.7,45.1h6.7c3.3,0,5.5-1.5,5.5-4.1c0-2.1-1.5-3.2-3.2-3.7c1.2-0.5,2.4-1.5,2.4-3.5c0-1-0.3-1.8-1-2.5c-0.8-0.9-2.2-1.3-4-1.3
	h-6.5V45.1L149.7,45.1z M151.4,43.6v-5.3h4.8c2.6,0,4,1,4,2.6c0,1.7-1.4,2.8-3.7,2.8H151.4L151.4,43.6z M151.4,36.7v-5.2h4.6
	c2.2,0,3.4,1,3.4,2.5c0,1.8-1.4,2.8-3.5,2.8H151.4L151.4,36.7z M165.3,45.1h1.7l9-12.6v12.6h1.7V30h-1.6L167,42.6V30h-1.7V45.1
	L165.3,45.1z M188.9,45.4c2.8,0,4.5-1,6.1-2.6l-1.1-1.2c-1.5,1.4-2.8,2.2-4.9,2.2c-3.3,0-5.9-2.7-5.9-6.3c0-3.5,2.5-6.3,5.9-6.3
	c2.1,0,3.5,0.9,4.8,2.1l1.1-1.2c-1.5-1.4-3.1-2.4-5.9-2.4c-4.5,0-7.7,3.6-7.7,7.8C181.3,41.9,184.6,45.4,188.9,45.4L188.9,45.4z"/>
<path class="st2" d="M186.4,11.9h1.2V7.7h1.6V6.6h-4.4v1.1h1.6V11.9L186.4,11.9z M189.5,13h1l0.1-1.1h3.3V13h1l0.2-2.1h-0.6V6.6
	h-3.8v0.6c0,1.8-0.2,2.7-0.6,3.6h-0.5V13L189.5,13z M193.2,7.7v3.2h-2c0.3-0.7,0.5-1.5,0.5-2.6V7.7H193.2L193.2,7.7z"/>
</svg>
