<?xml version="1.0" encoding="utf-8"?>
<!-- Generator: Adobe Illustrator 22.1.0, SVG Export Plug-In . SVG Version: 6.00 Build 0)  -->
<svg version="1.1" id="Слой_1" xmlns="http://www.w3.org/2000/svg" xmlns:xlink="http://www.w3.org/1999/xlink" x="0px" y="0px"
	 viewBox="0 0 50 50" style="enable-background:new 0 0 50 50;" xml:space="preserve">
<style type="text/css">
	.st0{fill-rule:evenodd;clip-rule:evenodd;fill:#72AE48;}
	.st1{fill-rule:evenodd;clip-rule:evenodd;fill:#484A57;}
</style>
<path class="st0" d="M24.5,1.4c5.4,0,10.4,1.8,14.4,4.8c-0.2,0.4-0.2,0.9-0.2,1.3c0,2.1,1.7,3.8,3.8,3.8c0.5,0,0.9-0.1,1.4-0.3
	c3.1,4.1,4.9,9.1,4.9,14.6C48.8,39.1,37.9,50,24.5,50C11.1,50,0.2,39.1,0.2,25.7c0-5.6,1.9-10.8,5.1-14.9c0.4,0.6,1.2,1.1,2,1.1
	c1.4,0,2.5-1.1,2.5-2.5c0-0.9-0.5-1.7-1.2-2.1C12.8,3.7,18.4,1.4,24.5,1.4L24.5,1.4z M24.5,17.4c4.6,0,8.4,3.7,8.4,8.4
	c0,4.6-3.7,8.4-8.4,8.4c-4.6,0-8.4-3.7-8.4-8.4C16.1,21.1,19.9,17.4,24.5,17.4L24.5,17.4z"/>
<path class="st1" d="M24.5,12.9c2.8,0,5.4,0.9,7.5,2.4l3.8-4.2c-0.6-1.1-0.9-2.3-0.9-3.5c0-4.2,3.4-7.5,7.5-7.5S50,3.4,50,7.5
	c0,4.2-3.4,7.5-7.5,7.5c-1.4,0-2.7-0.4-3.8-1l-3.8,4.2c1.5,2.1,2.4,4.7,2.4,7.5c0,7.1-5.7,12.8-12.8,12.8c-7.1,0-12.8-5.7-12.8-12.8
	c0-2.7,0.8-5.2,2.2-7.2l-4.6-4.6c-0.6,0.3-1.3,0.4-2,0.4c-2.7,0-4.9-2.2-4.9-4.9c0-2.7,2.2-4.9,4.9-4.9c2.7,0,4.9,2.2,4.9,4.9
	c0,0.8-0.2,1.6-0.5,2.2l4.4,4.4C18.3,14.1,21.2,12.9,24.5,12.9L24.5,12.9z M7.3,7c1.4,0,2.5,1.1,2.5,2.5c0,1.4-1.1,2.5-2.5,2.5
	c-1.4,0-2.5-1.1-2.5-2.5C4.8,8.1,5.9,7,7.3,7L7.3,7z M42.5,3.7c2.1,0,3.8,1.7,3.8,3.8c0,2.1-1.7,3.8-3.8,3.8c-2.1,0-3.8-1.7-3.8-3.8
	C38.7,5.4,40.4,3.7,42.5,3.7L42.5,3.7z M24.5,17.9c4.3,0,7.8,3.5,7.8,7.8c0,4.3-3.5,7.8-7.8,7.8c-4.3,0-7.8-3.5-7.8-7.8
	C16.6,21.4,20.1,17.9,24.5,17.9L24.5,17.9z"/>
</svg>
