<?xml version="1.0" encoding="utf-8"?>
<!-- Generator: Adobe Illustrator 22.1.0, SVG Export Plug-In . SVG Version: 6.00 Build 0)  -->
<svg version="1.1" id="Слой_1" xmlns="http://www.w3.org/2000/svg" xmlns:xlink="http://www.w3.org/1999/xlink" x="0px" y="0px"
	 viewBox="0 0 195 51" style="enable-background:new 0 0 195 51;" xml:space="preserve">
<style type="text/css">
	.st0{fill-rule:evenodd;clip-rule:evenodd;fill:#72AE48;}
	.st1{fill-rule:evenodd;clip-rule:evenodd;fill:#484A57;}
	.st2{fill:#484A57;}
</style>
<path class="st0" d="M24.3,1.8c5.4,0,10.4,1.8,14.4,4.8c-0.2,0.4-0.2,0.9-0.2,1.3c0,2.1,1.7,3.8,3.8,3.8c0.5,0,0.9-0.1,1.4-0.3
	c3.1,4.1,4.9,9.1,4.9,14.6c0,13.4-10.9,24.3-24.3,24.3C10.9,50.4,0,39.5,0,26.1c0-5.6,1.9-10.7,5.1-14.9c0.4,0.6,1.2,1.1,2,1.1
	c1.4,0,2.5-1.1,2.5-2.5c0-0.9-0.5-1.7-1.2-2.1C12.6,4.1,18.2,1.8,24.3,1.8L24.3,1.8z M24.3,17.8c4.6,0,8.4,3.7,8.4,8.4
	c0,4.6-3.7,8.4-8.4,8.4c-4.6,0-8.4-3.7-8.4-8.4C15.9,21.5,19.6,17.8,24.3,17.8L24.3,17.8z"/>
<path class="st1" d="M24.3,13.3c2.8,0,5.4,0.9,7.5,2.4l3.8-4.2c-0.6-1.1-0.9-2.2-0.9-3.5c0-4.2,3.4-7.5,7.5-7.5s7.5,3.4,7.5,7.5
	c0,4.2-3.4,7.5-7.5,7.5c-1.4,0-2.7-0.4-3.8-1l-3.8,4.2c1.5,2.1,2.4,4.7,2.4,7.5c0,7.1-5.7,12.8-12.8,12.8c-7.1,0-12.8-5.7-12.8-12.8
	c0-2.7,0.8-5.2,2.2-7.2l-4.6-4.6c-0.6,0.3-1.3,0.4-2,0.4c-2.7,0-4.9-2.2-4.9-4.9C2.2,7.2,4.4,5,7.1,5C9.8,5,12,7.2,12,9.9
	c0,0.8-0.2,1.6-0.5,2.2l4.4,4.4C18.1,14.5,21,13.3,24.3,13.3L24.3,13.3z M7.1,7.4c1.4,0,2.5,1.1,2.5,2.5c0,1.4-1.1,2.5-2.5,2.5
	c-1.4,0-2.5-1.1-2.5-2.5C4.6,8.5,5.7,7.4,7.1,7.4L7.1,7.4z M42.2,4.1c2.1,0,3.8,1.7,3.8,3.8c0,2.1-1.7,3.8-3.8,3.8
	c-2.1,0-3.8-1.7-3.8-3.8C38.4,5.8,40.1,4.1,42.2,4.1L42.2,4.1z M24.3,18.3c4.3,0,7.8,3.5,7.8,7.8c0,4.3-3.5,7.8-7.8,7.8
	c-4.3,0-7.8-3.5-7.8-7.8C16.4,21.8,19.9,18.3,24.3,18.3L24.3,18.3z"/>
<path class="st2" d="M60.3,22.4h1.7V8.8h8.5v13.6h1.7V7.3h-12V22.4L60.3,22.4z M76.6,22.4h1.7v-5.3H82c3.2,0,6-1.7,6-5
	c0-3-2.3-4.9-5.7-4.9h-5.7V22.4L76.6,22.4z M78.3,15.5V8.9h3.8c2.4,0,4.1,1.1,4.1,3.3c0,2-1.6,3.4-4.2,3.4H78.3L78.3,15.5z
	 M98.1,22.7c4.6,0,7.8-3.7,7.8-7.8c0-4.2-3.1-7.8-7.7-7.8c-4.6,0-7.8,3.7-7.8,7.8C90.4,19.1,93.5,22.7,98.1,22.7L98.1,22.7z
	 M98.1,21.1c-3.5,0-6-2.8-6-6.3c0-3.5,2.5-6.3,5.9-6.3s6,2.8,6,6.3C104.1,18.3,101.6,21.1,98.1,21.1L98.1,21.1z M107.5,25.8h1.5
	l0.3-3.4h12.3v3.4h1.4l0.3-4.9h-2V7.3h-9.9v2.6c0,4.9-0.8,8.6-2.3,11h-1.6V25.8L107.5,25.8z M111,20.9c1.3-2.1,2-6.1,2-10.1v-2h6.6
	v12H111L111,20.9z M125.5,22.4h3.3v-9.8L133,19h0.1l4.3-6.5v9.9h3.3V7.3H137l-4,6.4l-4-6.4h-3.6V22.4L125.5,22.4z M143,22.4h3.4
	l1.4-3.4h6.4l1.4,3.4h3.5l-6.5-15.3h-3.1L143,22.4L143,22.4z M148.9,16.1l2-4.9l2,4.9H148.9L148.9,16.1z M182.2,7.3h-3.3v12.1h-5.4
	V7.3h-3.3v12.1h-5.4V7.3h-3.3v15.2h20.8V7.3L182.2,7.3z M63.6,45.5h3.3V33.4h4.6v-3.1H58.9v3.1h4.6V45.5L63.6,45.5z M74.1,45.5h11.5
	v-3h-8.2v-3.2h7.1v-3h-7.1v-3.1h8.1v-3H74.1V45.5L74.1,45.5z M87.4,45.5h3.8l3.4-5.2l3.4,5.2h3.9l-5.3-7.8l5.1-7.4h-3.8l-3.2,4.9
	l-3.2-4.9h-3.9l5.1,7.4L87.4,45.5L87.4,45.5z M111.7,45.8c2.8,0,4.5-1,6.1-2.6l-1.1-1.2c-1.5,1.4-2.8,2.2-4.9,2.2
	c-3.3,0-5.9-2.7-5.9-6.3c0-3.5,2.5-6.3,5.9-6.3c2.1,0,3.5,0.9,4.8,2.1l1.1-1.2c-1.5-1.4-3.1-2.4-5.9-2.4c-4.5,0-7.7,3.6-7.7,7.8
	C104.1,42.3,107.3,45.8,111.7,45.8L111.7,45.8z M120.7,45.5h11.1V44h-9.4v-5.3h8.3v-1.6h-8.3v-5.2h9.2v-1.6h-11V45.5L120.7,45.5z
	 M135.2,45.5h1.7v-5.3h3.7c3.2,0,6-1.7,6-5c0-3-2.3-4.9-5.7-4.9h-5.7V45.5L135.2,45.5z M136.9,38.6V32h3.8c2.4,0,4.1,1.1,4.1,3.3
	c0,2-1.6,3.4-4.2,3.4H136.9L136.9,38.6z M149.7,45.5h6.7c3.3,0,5.5-1.5,5.5-4.1c0-2.1-1.5-3.2-3.2-3.7c1.2-0.5,2.4-1.5,2.4-3.5
	c0-1-0.3-1.8-1-2.5c-0.8-0.9-2.2-1.3-4-1.3h-6.5V45.5L149.7,45.5z M151.4,44v-5.3h4.8c2.6,0,4,1,4,2.6c0,1.7-1.4,2.8-3.7,2.8H151.4
	L151.4,44z M151.4,37.1v-5.2h4.6c2.2,0,3.4,1,3.4,2.5c0,1.8-1.4,2.8-3.5,2.8H151.4L151.4,37.1z M165.3,45.5h1.7l9-12.6v12.6h1.7
	V30.4h-1.6L167,43V30.4h-1.7V45.5L165.3,45.5z M188.9,45.8c2.8,0,4.5-1,6.1-2.6l-1.1-1.2c-1.5,1.4-2.8,2.2-4.9,2.2
	c-3.3,0-5.9-2.7-5.9-6.3c0-3.5,2.5-6.3,5.9-6.3c2.1,0,3.5,0.9,4.8,2.1l1.1-1.2c-1.5-1.4-3.1-2.4-5.9-2.4c-4.5,0-7.7,3.6-7.7,7.8
	C181.3,42.3,184.6,45.8,188.9,45.8L188.9,45.8z"/>
<path class="st2" d="M186.4,12.3h1.2V8.1h1.6V7h-4.4v1.1h1.6V12.3L186.4,12.3z M189.5,13.4h1l0.1-1.1h3.3v1.1h1l0.2-2.1h-0.6V7h-3.8
	v0.6c0,1.8-0.2,2.7-0.6,3.6h-0.5V13.4L189.5,13.4z M193.2,8.1v3.2h-2c0.3-0.7,0.5-1.5,0.5-2.6V8.1H193.2L193.2,8.1z"/>
</svg>
