<?xml version="1.0" encoding="utf-8"?>
<!-- Generator: Adobe Illustrator 22.1.0, SVG Export Plug-In . SVG Version: 6.00 Build 0)  -->
<svg version="1.1" id="Слой_1" xmlns="http://www.w3.org/2000/svg" xmlns:xlink="http://www.w3.org/1999/xlink" x="0px" y="0px"
	 viewBox="0 0 24 24" style="enable-background:new 0 0 24 24;" xml:space="preserve">
<g>
	<g>
		<path d="M21.1,2.7H2.9C1.3,2.7,0,4,0,5.6V18C0,19.6,1.3,21,2.9,21h18.1c1.6,0,2.9-1.3,2.9-2.9V5.6C24,4,22.7,2.7,21.1,2.7z
			 M22.7,18c0,0.9-0.7,1.6-1.6,1.6H2.9c-0.9,0-1.6-0.7-1.6-1.6V5.6C1.3,4.8,2.1,4,2.9,4h18.1c0.9,0,1.6,0.7,1.6,1.6L22.7,18L22.7,18
			z"/>
		<path d="M15.1,11.7L21,6.4c0.3-0.2,0.3-0.7,0-0.9c-0.2-0.3-0.7-0.3-0.9,0L12,12.7l-1.6-1.4c0,0,0,0,0,0c0,0-0.1-0.1-0.1-0.1
			L3.9,5.4C3.6,5.2,3.2,5.2,2.9,5.5S2.7,6.2,3,6.4l5.9,5.3L3,17.3c-0.3,0.3-0.3,0.7,0,0.9c0.1,0.1,0.3,0.2,0.5,0.2
			c0.2,0,0.3-0.1,0.5-0.2l6-5.6l1.6,1.5c0.1,0.1,0.3,0.2,0.4,0.2s0.3-0.1,0.4-0.2l1.7-1.5l6,5.7c0.1,0.1,0.3,0.2,0.5,0.2
			c0.2,0,0.4-0.1,0.5-0.2c0.3-0.3,0.2-0.7,0-0.9L15.1,11.7z"/>
	</g>
</g>
</svg>
