<?xml version="1.0" encoding="utf-8"?>
<!-- Generator: Adobe Illustrator 22.1.0, SVG Export Plug-In . SVG Version: 6.00 Build 0)  -->
<svg version="1.1" id="Слой_1" xmlns="http://www.w3.org/2000/svg" xmlns:xlink="http://www.w3.org/1999/xlink" x="0px" y="0px"
	 viewBox="0 0 24 24" style="enable-background:new 0 0 24 24;" xml:space="preserve">
<path d="M21.1,3H2.9C1.3,3,0,4.3,0,5.9v12.4c0,1.6,1.3,2.9,2.9,2.9h18.1c1.6,0,2.9-1.3,2.9-2.9V5.9C24,4.3,22.7,3,21.1,3z
	 M21.1,18.5c-0.1,0.1-0.3,0.2-0.5,0.2c-0.2,0-0.3-0.1-0.5-0.2l-6-5.7l-1.7,1.5c-0.1,0.1-0.3,0.2-0.4,0.2c-0.2,0-0.3-0.1-0.4-0.2
	l-1.6-1.5l-6,5.6c-0.1,0.1-0.3,0.2-0.5,0.2c-0.2,0-0.4-0.1-0.5-0.2c-0.3-0.3-0.2-0.7,0-0.9L8.9,12L3,6.7C2.7,6.5,2.7,6,2.9,5.8
	c0.2-0.3,0.7-0.3,0.9-0.1l6.4,5.8c0,0,0.1,0.1,0.1,0.1c0,0,0,0,0,0L12,13l8.1-7.3c0.3-0.2,0.7-0.2,0.9,0c0.2,0.3,0.2,0.7,0,0.9
	L15.1,12l5.9,5.6C21.3,17.8,21.3,18.3,21.1,18.5z"/>
</svg>
