<?xml version="1.0" encoding="utf-8"?>
<!-- Generator: Adobe Illustrator 22.1.0, SVG Export Plug-In . SVG Version: 6.00 Build 0)  -->
<svg version="1.1" id="Слой_1" xmlns="http://www.w3.org/2000/svg" xmlns:xlink="http://www.w3.org/1999/xlink" x="0px" y="0px"
	 viewBox="0 0 24 24" style="enable-background:new 0 0 24 24;" xml:space="preserve">
<g>
	<path d="M11.8,0C7,0,3,4,3,8.8c0,1.3,0.3,2.5,0.8,3.6c2.2,4.8,6.4,9.9,7.7,11.4c0.1,0.1,0.2,0.2,0.4,0.2c0.1,0,0.3-0.1,0.4-0.2
		c1.2-1.4,5.5-6.6,7.7-11.4c0.5-1.1,0.8-2.3,0.8-3.6C20.7,4,16.7,0,11.8,0z M11.8,13.4c-2.5,0-4.6-2.1-4.6-4.6
		c0-2.5,2.1-4.6,4.6-4.6s4.6,2.1,4.6,4.6C16.4,11.4,14.4,13.4,11.8,13.4z"/>
</g>
</svg>
