<?xml version="1.0" encoding="utf-8"?>
<!-- Generator: Adobe Illustrator 22.1.0, SVG Export Plug-In . SVG Version: 6.00 Build 0)  -->
<svg version="1.1" id="Слой_1" xmlns="http://www.w3.org/2000/svg" xmlns:xlink="http://www.w3.org/1999/xlink" x="0px" y="0px"
	 viewBox="0 0 24 24" style="enable-background:new 0 0 24 24;" xml:space="preserve">
<path d="M13,2c0,0.2-0.2,0.4-0.4,0.4c-0.2,0-0.4-0.2-0.4-0.4c0-0.2,0.2-0.4,0.4-0.4C12.8,1.6,13,1.8,13,2z"/>
<path d="M5.1,9.6V22c0,1.1,0.9,2,2,2h10.4c1.1,0,2-0.9,2-2V2c0-1.1-0.9-2-2-2H7.1c-1.1,0-2,0.9-2,2v2C4.9,4,4.7,4.2,4.7,4.4V6
	c0,0.2,0.2,0.4,0.4,0.4v0.8c-0.2,0-0.4,0.2-0.4,0.4v1.6c0,0.1,0,0.2,0.1,0.3S5,9.6,5.1,9.6z M18.7,20H5.9V4h12.8V20z M13.5,22
	c0,0.7-0.5,1.2-1.2,1.2c-0.7,0-1.2-0.5-1.2-1.2c0-0.7,0.5-1.2,1.2-1.2C13,20.8,13.5,21.3,13.5,22z M5.9,22v-1.2h4.8
	c-0.5,0.7-0.5,1.7,0,2.4H7.1C6.4,23.2,5.9,22.7,5.9,22z M17.5,23.2h-3.6c0.5-0.7,0.5-1.7,0-2.4h4.8V22
	C18.7,22.7,18.2,23.2,17.5,23.2z M7.1,0.8h10.4c0.7,0,1.2,0.5,1.2,1.2v1.2H5.9V2C5.9,1.3,6.4,0.8,7.1,0.8z"/>
</svg>
