<?xml version="1.0" encoding="utf-8"?>
<!-- Generator: Adobe Illustrator 22.1.0, SVG Export Plug-In . SVG Version: 6.00 Build 0)  -->
<svg version="1.1" id="Слой_1" xmlns="http://www.w3.org/2000/svg" xmlns:xlink="http://www.w3.org/1999/xlink" x="0px" y="0px"
	 viewBox="0 0 24 24" style="enable-background:new 0 0 24 24;" xml:space="preserve">
<g>
	<g>
		<path d="M14.4,8.8v3.6c0,0.2,0.2,0.4,0.4,0.4h4.8c0.1,0,0.2,0,0.2-0.1c0.2-0.1,0.2-0.4,0.1-0.6L17.9,9c0,0,0,0-0.1-0.1
			c-0.4-0.4-0.9-0.6-1.4-0.6h-1.6C14.6,8.4,14.4,8.6,14.4,8.8z M15.2,9.2h1.2c0.3,0,0.6,0.1,0.8,0.3l1.6,2.5h-3.7V9.2z"/>
	</g>
</g>
<g>
	<g>
		<rect x="14.8" y="13.6" width="2.4" height="0.8"/>
	</g>
</g>
<g>
	<g>
		<path d="M18.4,17.6c0,0.7,0.5,1.2,1.2,1.2s1.2-0.5,1.2-1.2s-0.5-1.2-1.2-1.2S18.4,16.9,18.4,17.6z M19.2,17.6
			c0-0.2,0.2-0.4,0.4-0.4s0.4,0.2,0.4,0.4S19.8,18,19.6,18S19.2,17.8,19.2,17.6z"/>
	</g>
</g>
<g>
	<g>
		<path d="M3.2,17.6c0,0.7,0.5,1.2,1.2,1.2s1.2-0.5,1.2-1.2s-0.5-1.2-1.2-1.2S3.2,16.9,3.2,17.6z M4,17.6c0-0.2,0.2-0.4,0.4-0.4
			s0.4,0.2,0.4,0.4S4.6,18,4.4,18S4,17.8,4,17.6z"/>
	</g>
</g>
<g>
	<g>
		<path d="M0,3.6l0,14c0,0.9,0.7,1.6,1.6,1.6h0.5c0.2,0.3,0.4,0.5,0.7,0.7c1.3,0.9,3,0.6,3.9-0.7h10.6c0.2,0.3,0.4,0.5,0.7,0.7
			c1.3,0.9,3,0.6,3.9-0.7h0.5c0.9,0,1.6-0.7,1.6-1.6v-2.8c0-1.1,0-2.8-1.6-2.8c-0.4,0-0.8-0.2-1.2-0.4L17.8,7c0,0,0,0-0.1-0.1
			c-0.4-0.3-0.8-0.5-1.3-0.5H14V3.6c0-0.2-0.2-0.4-0.4-0.4H0.4C0.2,3.2,0,3.4,0,3.6z M17.6,17.6c0-1.1,0.9-2,2-2s2,0.9,2,2
			c0,1.1-0.9,2-2,2C18.5,19.6,17.6,18.7,17.6,17.6z M4.6,14.8h9c0.2,0,0.4-0.2,0.4-0.4V7.2h2.5c0.3,0,0.5,0.1,0.8,0.3l3.4,4.6
			c0,0,0,0,0.1,0.1c0.5,0.4,1.1,0.7,1.7,0.7c0.6,0,0.8,0.4,0.8,2v2.8c0,0.4-0.4,0.8-0.8,0.8h-0.1c0.2-0.5,0.2-1.1,0-1.6
			c-0.4-1.5-2-2.3-3.5-1.9c-1.5,0.4-2.3,2-1.9,3.5H7.1c0.2-0.5,0.2-1.1,0-1.6C6.7,15.7,5.8,14.9,4.6,14.8z M2.4,17.6
			c0-1.1,0.9-2,2-2s2,0.9,2,2c0,1.1-0.9,2-2,2C3.3,19.6,2.4,18.7,2.4,17.6z M0.8,14.8h3.3c-0.2,0-0.4,0.1-0.6,0.1
			c-1.5,0.4-2.3,2-1.9,3.5H1.6c-0.4,0-0.8-0.4-0.8-0.8V14.8z M0.8,4h12.4v10H0.8V4z"/>
	</g>
</g>
<g>
	<g>
		<rect x="2" y="4.8" width="10" height="0.8"/>
	</g>
</g>
<g>
	<g>
		<rect x="2" y="6.4" width="10" height="0.8"/>
	</g>
</g>
<g>
	<g>
		<rect x="2" y="8" width="10" height="0.8"/>
	</g>
</g>
<g>
	<g>
		<rect x="2" y="9.6" width="10" height="0.8"/>
	</g>
</g>
</svg>
