<?xml version="1.0" encoding="utf-8"?>
<!-- Generator: Adobe Illustrator 22.1.0, SVG Export Plug-In . SVG Version: 6.00 Build 0)  -->
<svg version="1.1" id="Слой_1" xmlns="http://www.w3.org/2000/svg" xmlns:xlink="http://www.w3.org/1999/xlink" x="0px" y="0px"
	 viewBox="0 0 24 24" style="enable-background:new 0 0 24 24;" xml:space="preserve">
<g>
	<path d="M7.7,14.7h2.3v-2.3H7.7V14.7z M8.5,13.2h0.8v0.8H8.5V13.2z"/>
	<path d="M7.7,11.6h2.3V9.3H7.7V11.6z M8.5,10.1h0.8v0.8H8.5V10.1z"/>
	<path d="M4.6,14.7H7v-2.3H4.6V14.7z M5.4,13.2h0.8v0.8H5.4V13.2z"/>
	<path d="M4.6,11.6H7V9.3H4.6V11.6z M5.4,10.1h0.8v0.8H5.4V10.1z"/>
	<path d="M1.5,14.7h2.3v-2.3H1.5V14.7z M2.3,13.2h0.8v0.8H2.3V13.2z"/>
	<path d="M1.5,11.6h2.3V9.3H1.5V11.6z M2.3,10.1h0.8v0.8H2.3V10.1z"/>
	<path d="M4.6,8.5H7V6.2H4.6V8.5z M5.4,7h0.8v0.8H5.4V7z"/>
	<path d="M7.7,8.5h2.3V6.2H7.7V8.5z M8.5,7h0.8v0.8H8.5V7z"/>
	<path d="M1.5,8.5h2.3V6.2H1.5V8.5z M2.3,7h0.8v0.8H2.3V7z"/>
	<path d="M1.5,5.4h8.5V1.5H1.5V5.4z M2.3,2.3h7v2.3h-7V2.3z"/>
	<path d="M12.4,0v16c-0.3-0.1-0.6-0.3-0.9-0.3c0.1-0.2,0.1-0.3,0.1-0.5V1.2c0-0.6-0.5-1.2-1.2-1.2H1.2C0.5,0,0,0.5,0,1.2v13.9
		c0,0.6,0.5,1.2,1.2,1.2h0.7C0.7,17,0,18.3,0,19.7C0,22.1,1.9,24,4.3,24c1.2,0,2.3-0.5,3.1-1.3c0.8,0.9,1.9,1.3,3.1,1.3
		c1.2,0,2.3-0.5,3.1-1.3c0.8,0.9,1.9,1.3,3.1,1.3c1.9,0,3.6-1.3,4.1-3.1H24V0H12.4z M1.2,15.5c-0.2,0-0.4-0.2-0.4-0.4V1.2
		c0-0.2,0.2-0.4,0.4-0.4h9.3c0.2,0,0.4,0.2,0.4,0.4v13.9c0,0.2-0.2,0.4-0.4,0.4H1.2z M8,16.3c-0.2,0.2-0.5,0.4-0.7,0.6
		c-0.2-0.2-0.4-0.4-0.7-0.6H8z M4.3,23.2c-1.9,0-3.5-1.6-3.5-3.5s1.6-3.5,3.5-3.5s3.5,1.6,3.5,3.5S6.2,23.2,4.3,23.2z M10.5,23.2
		c-1,0-1.9-0.4-2.6-1.2c0.4-0.7,0.7-1.4,0.7-2.3s-0.3-1.6-0.7-2.3c0.7-0.8,1.6-1.2,2.6-1.2c1.9,0,3.5,1.6,3.5,3.5
		S12.4,23.2,10.5,23.2z M16.6,23.2c-1,0-1.9-0.4-2.6-1.2c0.4-0.7,0.7-1.4,0.7-2.3s-0.3-1.6-0.7-2.3c0.7-0.8,1.6-1.2,2.6-1.2
		c1.9,0,3.5,1.6,3.5,3.5S18.6,23.2,16.6,23.2z M23.2,20.1h-2.3c0-0.1,0-0.3,0-0.4s0-0.3,0-0.4h1.6v-2.7h-0.8v1.9h-0.9
		c-0.5-1.8-2.1-3.1-4.1-3.1c-1.2,0-2.3,0.5-3.1,1.3c-0.1-0.1-0.2-0.3-0.4-0.4V0.8h10.1V20.1z"/>
	<path d="M18.2,14.7c2.3,0,4.3-1.9,4.3-4.3s-1.9-4.3-4.3-4.3s-4.3,1.9-4.3,4.3S15.8,14.7,18.2,14.7z M18.2,7c1.9,0,3.5,1.6,3.5,3.5
		s-1.6,3.5-3.5,3.5s-3.5-1.6-3.5-3.5S16.3,7,18.2,7z"/>
	<polygon points="21.7,4.3 22.5,4.3 22.5,1.5 19.7,1.5 19.7,2.3 21.7,2.3 	"/>
	<polygon points="14.7,2.3 16.6,2.3 16.6,1.5 13.9,1.5 13.9,4.3 14.7,4.3 	"/>
	<path d="M5.4,17.9c-0.2-0.1-0.4-0.1-0.8-0.1H3.4v1.7H3.2v0.4h0.3v0.4H3.2v0.4h0.3v1h0.5v-1h1.5v-0.4H3.9v-0.4h0.7
		c0.2,0,0.4,0,0.5,0c0.2,0,0.3-0.1,0.4-0.2c0.1-0.1,0.2-0.2,0.3-0.3C5.9,19.2,6,19,6,18.8c0-0.2-0.1-0.4-0.2-0.6
		C5.7,18,5.6,17.9,5.4,17.9z M5.4,19.1c0,0.1-0.1,0.1-0.2,0.2c-0.1,0-0.2,0.1-0.3,0.1c-0.1,0-0.2,0-0.3,0H3.9v-1.3h0.7
		c0.1,0,0.2,0,0.3,0c0.1,0,0.2,0.1,0.3,0.1c0.1,0,0.1,0.1,0.2,0.2c0,0.1,0.1,0.2,0.1,0.3C5.4,18.9,5.4,19,5.4,19.1z"/>
	<path d="M11.6,17.9c-0.2-0.1-0.4-0.1-0.8-0.1H9.6v1.7H9.4v0.4h0.3v0.4H9.4v0.4h0.3v1h0.5v-1h1.5v-0.4h-1.5v-0.4h0.7
		c0.2,0,0.4,0,0.5,0c0.2,0,0.3-0.1,0.4-0.2c0.1-0.1,0.2-0.2,0.3-0.3c0.1-0.1,0.1-0.3,0.1-0.5c0-0.2-0.1-0.4-0.2-0.6
		C11.9,18,11.8,17.9,11.6,17.9z M11.6,19.1c0,0.1-0.1,0.1-0.2,0.2c-0.1,0-0.2,0.1-0.3,0.1c-0.1,0-0.2,0-0.3,0h-0.7v-1.3h0.7
		c0.1,0,0.2,0,0.3,0c0.1,0,0.2,0.1,0.3,0.1c0.1,0,0.1,0.1,0.2,0.2c0,0.1,0.1,0.2,0.1,0.3C11.7,18.9,11.6,19,11.6,19.1z"/>
	<path d="M18,17.9c-0.2-0.1-0.4-0.1-0.8-0.1H16v1.7h-0.3v0.4H16v0.4h-0.3v0.4H16v1h0.5v-1H18v-0.4h-1.5v-0.4h0.7c0.2,0,0.4,0,0.5,0
		c0.2,0,0.3-0.1,0.4-0.2c0.1-0.1,0.2-0.2,0.3-0.3c0.1-0.1,0.1-0.3,0.1-0.5c0-0.2-0.1-0.4-0.2-0.6C18.3,18,18.1,17.9,18,17.9z
		 M17.9,19.1c0,0.1-0.1,0.1-0.2,0.2c-0.1,0-0.2,0.1-0.3,0.1c-0.1,0-0.2,0-0.3,0h-0.7v-1.3h0.7c0.1,0,0.2,0,0.3,0
		c0.1,0,0.2,0.1,0.3,0.1c0.1,0,0.1,0.1,0.2,0.2c0,0.1,0.1,0.2,0.1,0.3C18,18.9,18,19,17.9,19.1z"/>
	<path d="M17.1,11.6h0.4V10h0.4v0.7c0,0.2,0,0.4,0,0.5c0,0.2,0.1,0.3,0.2,0.4c0.1,0.1,0.2,0.2,0.3,0.3c0.1,0.1,0.3,0.1,0.5,0.1
		c0.2,0,0.4-0.1,0.6-0.2c0.2-0.1,0.3-0.2,0.4-0.4c0.1-0.2,0.1-0.4,0.1-0.8V9.5h-1.7V9.3h-0.4v0.3h-0.4V9.3h-0.4v0.3h-1V10h1V11.6z
		 M18.3,10h1.3v0.7c0,0.1,0,0.2,0,0.3c0,0.1-0.1,0.2-0.1,0.3c0,0.1-0.1,0.1-0.2,0.2c-0.1,0-0.2,0.1-0.3,0.1c-0.1,0-0.2,0-0.3-0.1
		c-0.1,0-0.1-0.1-0.2-0.2c0-0.1-0.1-0.2-0.1-0.3c0-0.1,0-0.2,0-0.3V10z"/>
</g>
</svg>
