<?xml version="1.0" encoding="utf-8"?>
<!-- Generator: Adobe Illustrator 22.1.0, SVG Export Plug-In . SVG Version: 6.00 Build 0)  -->
<svg version="1.1" id="Слой_1" xmlns="http://www.w3.org/2000/svg" xmlns:xlink="http://www.w3.org/1999/xlink" x="0px" y="0px"
	 viewBox="0 0 24 24" style="enable-background:new 0 0 24 24;" xml:space="preserve">
<path d="M4.6,12.4h1.5v0.8H4.6V12.4z"/>
<path d="M17.8,12.4h1.5v0.8h-1.5V12.4z"/>
<path d="M24,9.7C24,8.2,22.8,7,21.3,7h-1.2c0-0.1,0.1-0.3,0.1-0.4V5c0-2.8-2.3-5-5-5H8.9c-2.8,0-5,2.3-5,5v1.5c0,0.1,0,0.3,0.1,0.4
	H2.7C1.2,7,0,8.2,0,9.7v3.5h0.8v8.9c0,1.1,0.9,1.9,1.9,1.9h18.6c1.1,0,1.9-0.9,1.9-1.9v-8.9H24V9.7z M4.6,6.6V5
	c0-2.3,1.9-4.3,4.3-4.3h6.2c2.3,0,4.3,1.9,4.3,4.3v1.5C19.4,6.8,19.2,7,19,7h-4.2c0.2-0.4,0.6-0.8,1.1-0.8h2.7V5.4
	c0-2.1-1.7-3.9-3.9-3.9H9.3c-2.1,0-3.9,1.7-3.9,3.9v0.8h2.7c0.5,0,0.9,0.3,1.1,0.8H5C4.8,7,4.6,6.8,4.6,6.6z M10,7
	c-0.2-0.9-1-1.5-1.9-1.5H6.2c0-1.7,1.4-3.1,3.1-3.1h5.4c1.7,0,3.1,1.4,3.1,3.1h-1.9c-0.9,0-1.7,0.7-1.9,1.5H10z M22.5,22.1
	c0,0.6-0.5,1.2-1.2,1.2H2.7c-0.6,0-1.2-0.5-1.2-1.2v-8.9h1.5v0.4c0,0.6,0.5,1.2,1.2,1.2h2.3c0.6,0,1.2-0.5,1.2-1.2v-0.4h8.5v0.4
	c0,0.6,0.5,1.2,1.2,1.2h2.3c0.6,0,1.2-0.5,1.2-1.2v-0.4h1.5V22.1z M3.9,13.5V12c0-0.2,0.2-0.4,0.4-0.4h2.3C6.8,11.6,7,11.8,7,12v1.5
	c0,0.2-0.2,0.4-0.4,0.4H4.3C4,13.9,3.9,13.8,3.9,13.5z M17,13.5V12c0-0.2,0.2-0.4,0.4-0.4h2.3c0.2,0,0.4,0.2,0.4,0.4v1.5
	c0,0.2-0.2,0.4-0.4,0.4h-2.3C17.2,13.9,17,13.8,17,13.5z M23.2,12.4h-2.3V12c0-0.6-0.5-1.2-1.2-1.2h-2.3c-0.6,0-1.2,0.5-1.2,1.2v0.4
	H7.7V12c0-0.6-0.5-1.2-1.2-1.2H4.3c-0.6,0-1.2,0.5-1.2,1.2v0.4H0.8V9.7c0-1.1,0.9-1.9,1.9-1.9h18.6c1.1,0,1.9,0.9,1.9,1.9V12.4z"/>
<path d="M18.4,15.5c-1.2,0-2.2,0.6-2.8,1.5H8.4c-0.6-0.9-1.6-1.5-2.8-1.5c-0.9,0-1.7,0.3-2.4,1l-0.1,0.1v1.2h2l0.3,0.8l-0.3,0.8h-2
	v1.2l0.1,0.1c0.6,0.6,1.5,1,2.4,1c1.2,0,2.2-0.6,2.8-1.5h7.3c0.6,0.9,1.6,1.5,2.8,1.5c0.9,0,1.7-0.3,2.4-1l0.1-0.1v-1.2h-2l-0.3-0.8
	l0.3-0.8h2v-1.2l-0.1-0.1C20.2,15.8,19.3,15.5,18.4,15.5z M20.1,17h-1.7l-0.7,1.5l0.7,1.5h1.7v0.1c-0.5,0.4-1.1,0.6-1.7,0.6
	c-0.9,0-1.8-0.5-2.2-1.3l-0.1-0.2h-1.4v-0.8h-0.8v0.8h-2.3v-0.8h-0.8v0.8H8.5v-0.8H7.7v1.1c-0.4,0.8-1.3,1.3-2.2,1.3
	c-0.6,0-1.2-0.2-1.7-0.6v-0.1h1.7l0.7-1.5L5.6,17H3.9v-0.1c0.5-0.4,1.1-0.6,1.7-0.6c0.9,0,1.8,0.5,2.2,1.3l0.1,0.2h1.4v0.8h0.8v-0.8
	h2.3v0.8h0.8v-0.8h2.3v0.8h0.8v-1.1c0.4-0.8,1.3-1.3,2.2-1.3c0.6,0,1.2,0.2,1.7,0.6V17z"/>
</svg>
