<?xml version="1.0" encoding="utf-8"?>
<!-- Generator: Adobe Illustrator 22.1.0, SVG Export Plug-In . SVG Version: 6.00 Build 0)  -->
<svg version="1.1" id="Слой_1" xmlns="http://www.w3.org/2000/svg" xmlns:xlink="http://www.w3.org/1999/xlink" x="0px" y="0px"
	 viewBox="0 0 24 24" style="enable-background:new 0 0 24 24;" xml:space="preserve">
<g>
	<g>
		<path d="M23.8,2.4l-2.3-2.3C21.4,0,21.1,0,21,0.2l-3.4,3.4V0.4c0-0.2-0.2-0.4-0.4-0.4H2C1.8,0,1.6,0.2,1.6,0.4v1.2H0.4
			C0.2,1.6,0,1.8,0,2v21.6C0,23.8,0.2,24,0.4,24h15.2c0.2,0,0.4-0.2,0.4-0.4v-1.2h1.2c0.2,0,0.4-0.2,0.4-0.4V9.2l4.8-4.8
			c0.2,0.5,0.1,1-0.2,1.4l-2.8,2.8l0.6,0.6l2.8-2.8c0.7-0.7,0.8-1.7,0.3-2.5L23.8,3C24,2.9,24,2.6,23.8,2.4z M2.4,0.8h14.4v3.6
			L16,5.2V2c0-0.2-0.2-0.4-0.4-0.4H2.4C2.4,1.6,2.4,0.8,2.4,0.8z M15.2,23.2H0.8V2.4h14.4V6l-1.6,1.6l0,0V6.8h-1.2v0.8h1.2l-7.3,7.3
			c-0.1,0.1-0.1,0.1-0.1,0.2l-0.6,2.8c0,0.2,0.1,0.4,0.3,0.5c0,0,0.1,0,0.1,0c0,0,0.1,0,0.1,0l2.8-0.6c0.1,0,0.1-0.1,0.2-0.1
			l6.1-6.1V23.2z M8.6,17.1l-2.1,0.4l0.4-2.1l7-7l1.7,1.7L8.6,17.1z M16.8,21.6H16V10.8l0.5-0.5l0.3-0.3V21.6z M16.2,9.5l-1.7-1.7
			L21.3,1L23,2.7L16.2,9.5z"/>
	</g>
</g>
<g>
	<g>
		<rect x="4" y="3.6" width="8" height="0.8"/>
	</g>
</g>
<g>
	<g>
		<rect x="4" y="6.8" width="2.4" height="0.8"/>
	</g>
</g>
<g>
	<g>
		<rect x="7.2" y="6.8" width="4.4" height="0.8"/>
	</g>
</g>
<g>
	<g>
		<rect x="2.4" y="8.4" width="3.2" height="0.8"/>
	</g>
</g>
<g>
	<g>
		<rect x="6.4" y="8.4" width="4" height="0.8"/>
	</g>
</g>
<g>
	<g>
		<rect x="2.4" y="10" width="6.8" height="0.8"/>
	</g>
</g>
<g>
	<g>
		<rect x="2.4" y="11.6" width="2.4" height="0.8"/>
	</g>
</g>
<g>
	<g>
		<rect x="5.6" y="11.6" width="2.4" height="0.8"/>
	</g>
</g>
<g>
	<g>
		<rect x="2.4" y="13.2" width="4" height="0.8"/>
	</g>
</g>
<g>
	<g>
		<rect x="10.8" y="16.4" width="2.8" height="0.8"/>
	</g>
</g>
<g>
	<g>
		<rect x="2.4" y="16.4" width="2" height="0.8"/>
	</g>
</g>
<g>
	<g>
		<rect x="2.4" y="18" width="2.4" height="0.8"/>
	</g>
</g>
<g>
	<g>
		<rect x="12.4" y="14.8" width="1.2" height="0.8"/>
	</g>
</g>
</svg>
