<?xml version="1.0" encoding="utf-8"?>
<!-- Generator: Adobe Illustrator 22.1.0, SVG Export Plug-In . SVG Version: 6.00 Build 0)  -->
<svg version="1.1" id="Слой_1" xmlns="http://www.w3.org/2000/svg" xmlns:xlink="http://www.w3.org/1999/xlink" x="0px" y="0px"
	 viewBox="0 0 24 24" style="enable-background:new 0 0 24 24;" xml:space="preserve">
<path d="M23.2,20.1V6.6c0-1.1-0.9-1.9-1.9-1.9h-1.2V1.2C20.1,0.5,19.6,0,19,0H5C4.4,0,3.9,0.5,3.9,1.2v3.5H2.7
	c-1.1,0-1.9,0.9-1.9,1.9v13.5H0v1.9C0,23.1,0.9,24,1.9,24h20.1c1.1,0,1.9-0.9,1.9-1.9v-1.9H23.2z M21.3,5.4c0.6,0,1.2,0.5,1.2,1.2
	v13.5h-0.8V7c0-0.4-0.3-0.8-0.8-0.8h-0.8V5.4H21.3z M3.1,20.1V7h0.8v3.5c0,0.6,0.5,1.2,1.2,1.2h3.8l5.1,3.4v-3.4h5
	c0.6,0,1.2-0.5,1.2-1.2V7h0.8v13.2h-5.4v0.4c0,0.2-0.2,0.4-0.4,0.4H8.9c-0.2,0-0.4-0.2-0.4-0.4v-0.4H3.1z M4.6,1.2
	c0-0.2,0.2-0.4,0.4-0.4H19c0.2,0,0.4,0.2,0.4,0.4v9.3c0,0.2-0.2,0.4-0.4,0.4h-5.8v2.8L9,10.8H5c-0.2,0-0.4-0.2-0.4-0.4V1.2z
	 M1.5,6.6c0-0.6,0.5-1.2,1.2-1.2h1.2v0.8H3.1C2.7,6.2,2.3,6.5,2.3,7v13.2H1.5V6.6z M23.2,22.1c0,0.6-0.5,1.2-1.2,1.2H1.9
	c-0.6,0-1.2-0.5-1.2-1.2v-1.2h7c0.2,0.5,0.6,0.8,1.1,0.8h6.2c0.5,0,0.9-0.3,1.1-0.8h7V22.1z"/>
<path d="M2.3,21.7h0.8v0.8H2.3V21.7z"/>
<path d="M3.9,21.7h0.8v0.8H3.9V21.7z"/>
<path d="M5.4,21.7h0.8v0.8H5.4V21.7z"/>
<path d="M3.9,18.6h8.5v0.8H3.9V18.6z"/>
<path d="M3.9,17h8.5v0.8H3.9V17z"/>
<path d="M3.9,15.5h8.5v0.8H3.9V15.5z"/>
<path d="M14.7,12.4h5.4v0.8h-5.4V12.4z"/>
<path d="M14.7,13.9h5.4v0.8h-5.4V13.9z"/>
<path d="M14.7,15.5h5.4v0.8h-5.4V15.5z"/>
</svg>
