<?xml version="1.0" encoding="utf-8"?>
<!-- Generator: Adobe Illustrator 22.1.0, SVG Export Plug-In . SVG Version: 6.00 Build 0)  -->
<svg version="1.1" id="Слой_1" xmlns="http://www.w3.org/2000/svg" xmlns:xlink="http://www.w3.org/1999/xlink" x="0px" y="0px"
	 viewBox="0 0 24 24" style="enable-background:new 0 0 24 24;" xml:space="preserve">
<g id="Search">
	<path d="M23.4,20.6l-5.2-5.2c0,0-0.1,0-0.1-0.1c1-1.6,1.6-3.4,1.6-5.4c0-5.4-4.4-9.9-9.9-9.9S0,4.4,0,9.9c0,5.4,4.4,9.9,9.9,9.9
		c2,0,3.9-0.6,5.4-1.6c0,0,0,0.1,0.1,0.1l5.2,5.2c0.8,0.8,2.1,0.8,2.8,0C24.2,22.6,24.2,21.4,23.4,20.6z M9.9,16.3
		c-3.6,0-6.4-2.9-6.4-6.4c0-3.6,2.9-6.4,6.4-6.4c3.6,0,6.4,2.9,6.4,6.4S13.4,16.3,9.9,16.3z"/>
</g>
</svg>
