<?xml version="1.0" encoding="utf-8"?>
<!-- Generator: Adobe Illustrator 22.1.0, SVG Export Plug-In . SVG Version: 6.00 Build 0)  -->
<svg version="1.1" id="Слой_1" xmlns="http://www.w3.org/2000/svg" xmlns:xlink="http://www.w3.org/1999/xlink" x="0px" y="0px"
	 viewBox="0 0 24 24" style="enable-background:new 0 0 24 24;" xml:space="preserve">
<g>
	<g>
		<g>
			<path d="M9.2,12.9c0.3-0.1,0.5-0.2,0.7-0.3l1.6,1l2.1-2.1l-1-1.6c0.1-0.2,0.2-0.5,0.3-0.7l1.9-0.4v-3l-1.9-0.4
				c-0.1-0.3-0.2-0.6-0.4-0.9l-0.7,0.4c0.2,0.3,0.3,0.7,0.4,1l0.1,0.2l1.7,0.3v1.7l-1.7,0.3l-0.1,0.2c-0.1,0.4-0.2,0.7-0.4,1
				L11.7,10l1,1.4l-1.2,1.2l-1.4-1l-0.2,0.1c-0.3,0.2-0.7,0.3-1,0.4l-0.2,0.1l-0.3,1.7H6.5l-0.3-1.7l-0.2-0.1
				c-0.4-0.1-0.7-0.2-1-0.4l-0.2-0.1l-1.4,1l-1.4-1.4l-0.5,0.5l1.9,1.9l1.6-1c0.2,0.1,0.5,0.2,0.7,0.3l0.4,1.9h3L9.2,12.9z"/>
			<path d="M2.3,10.2l0.7-0.4c-0.2-0.3-0.3-0.7-0.4-1L2.5,8.5L0.8,8.2V6.5l1.7-0.3l0.1-0.2c0.1-0.4,0.2-0.7,0.4-1l0.1-0.2l-1-1.4
				l1.2-1.2l1.4,1l0.2-0.1c0.3-0.2,0.7-0.3,1-0.4l0.2-0.1l0.3-1.7h1.7l0.3,1.7l0.2,0.1c0.4,0.1,0.7,0.2,1,0.4L10,3.1l1.4-1l1.4,1.4
				L13.4,3l-1.9-1.9l-1.6,1C9.7,2,9.5,1.9,9.2,1.9L8.8,0h-3L5.5,1.9C5.3,1.9,5,2,4.8,2.2l-1.6-1L1.1,3.2l1,1.6C2,5,1.9,5.3,1.9,5.5
				L0,5.9v3l1.9,0.4C2,9.5,2.1,9.9,2.3,10.2z"/>
			<path d="M11.6,7.4c0-2.3-1.9-4.3-4.3-4.3v0.8c1.9,0,3.5,1.6,3.5,3.5H11.6z"/>
			<path d="M3.9,7.4H3.1c0,2.3,1.9,4.3,4.3,4.3v-0.8C5.4,10.8,3.9,9.3,3.9,7.4z"/>
			<path d="M10.1,7.4c0-1.5-1.2-2.7-2.7-2.7S4.6,5.9,4.6,7.4s1.2,2.7,2.7,2.7S10.1,8.8,10.1,7.4z M5.4,7.4c0-1.1,0.9-1.9,1.9-1.9
				s1.9,0.9,1.9,1.9S8.4,9.3,7.4,9.3S5.4,8.4,5.4,7.4z"/>
			<path d="M15,17.4l-0.7,0.4c0.1,0.2,0.2,0.5,0.3,0.7l0.1,0.2l0.8,0.1v0.9l-0.8,0.1l-0.1,0.2c-0.1,0.3-0.2,0.5-0.3,0.7l-0.1,0.2
				l0.5,0.7L14,22.4l-0.7-0.5L13.1,22c-0.2,0.1-0.5,0.2-0.7,0.3l-0.2,0.1l-0.1,0.8h-0.9L11,22.4l-0.2-0.1c-0.3-0.1-0.5-0.2-0.7-0.3
				l-0.2-0.1l-0.7,0.5l-0.9-0.9l-0.5,0.5l1.3,1.3l0.8-0.6c0.1,0.1,0.3,0.1,0.4,0.2l0.2,1h2.2l0.2-1c0.1,0,0.3-0.1,0.4-0.2l0.8,0.6
				l1.6-1.6L15.1,21c0.1-0.1,0.1-0.3,0.2-0.4l1-0.2v-2.2l-1-0.2C15.2,17.9,15.1,17.6,15,17.4z"/>
			<path d="M8.2,21.3l0.7-0.4c-0.1-0.2-0.2-0.5-0.3-0.7l-0.1-0.2l-0.8-0.1v-0.9l0.8-0.1l0.1-0.2c0.1-0.3,0.2-0.5,0.3-0.7L9,17.6
				l-0.5-0.7l0.6-0.6l0.7,0.5l0.2-0.1c0.2-0.1,0.5-0.2,0.7-0.3l0.2-0.1l0.1-0.8h0.9l0.1,0.8l0.2,0.1c0.3,0.1,0.5,0.2,0.7,0.3
				l0.2,0.1l0.7-0.5l0.9,0.9l0.5-0.5l-1.3-1.3l-0.8,0.6c-0.1-0.1-0.3-0.1-0.4-0.2l-0.2-1h-2.2l-0.2,1c-0.1,0-0.3,0.1-0.4,0.2
				l-0.8-0.6l-1.6,1.6l0.6,0.8C8.1,17.8,8,17.9,8,18.1l-1,0.2v2.2l1,0.2C8,20.8,8.1,21.1,8.2,21.3z"/>
			<path d="M11.6,17.4c-1.1,0-1.9,0.9-1.9,1.9c0,1.1,0.9,1.9,1.9,1.9s1.9-0.9,1.9-1.9C13.5,18.3,12.7,17.4,11.6,17.4z M11.6,20.5
				c-0.6,0-1.2-0.5-1.2-1.2c0-0.6,0.5-1.2,1.2-1.2s1.2,0.5,1.2,1.2C12.8,20,12.3,20.5,11.6,20.5z"/>
			<path d="M24,12.3v-2.2L23,10c-0.1-0.2-0.2-0.4-0.3-0.6L22,9.7c0.1,0.2,0.2,0.5,0.3,0.7l0.1,0.2l0.8,0.1v0.9l-0.8,0.1L22.3,12
				c-0.1,0.3-0.2,0.5-0.3,0.7L21.9,13l0.5,0.7l-0.6,0.6l-0.7-0.5l-0.2,0.1c-0.2,0.1-0.5,0.2-0.7,0.3l-0.2,0.1l-0.1,0.8h-0.9
				l-0.1-0.8l-0.2-0.1c-0.3-0.1-0.5-0.2-0.7-0.3l-0.2-0.1l-0.7,0.5l-0.9-0.9L15.5,14l1.3,1.3l0.8-0.6c0.1,0.1,0.3,0.1,0.4,0.2l0.2,1
				h2.2l0.2-1c0.1,0,0.3-0.1,0.4-0.2l0.8,0.6l1.6-1.6l-0.6-0.8c0.1-0.1,0.1-0.3,0.2-0.4L24,12.3z"/>
			<path d="M15.7,10l-1,0.2v2.2l1,0.2c0.1,0.2,0.2,0.4,0.3,0.6l0.7-0.4c-0.1-0.2-0.2-0.5-0.3-0.7l-0.1-0.2l-0.8-0.1v-0.9l0.8-0.1
				l0.1-0.2c0.1-0.3,0.2-0.5,0.3-0.7l0.1-0.2l-0.5-0.7l0.6-0.6l0.7,0.5l0.2-0.1c0.2-0.1,0.5-0.2,0.7-0.3l0.2-0.1l0.1-0.8h0.9
				l0.1,0.8l0.2,0.1c0.3,0.1,0.5,0.2,0.7,0.3l0.2,0.1l0.7-0.5L22.6,9l0.5-0.5l-1.3-1.3L21,7.7c-0.1-0.1-0.3-0.1-0.4-0.2l-0.2-1h-2.2
				l-0.2,1c-0.1,0-0.3,0.1-0.4,0.2l-0.8-0.6l-1.6,1.6l0.6,0.8C15.8,9.7,15.8,9.8,15.7,10z"/>
			<path d="M19.4,9.3c-1.1,0-1.9,0.9-1.9,1.9s0.9,1.9,1.9,1.9c1.1,0,1.9-0.9,1.9-1.9S20.4,9.3,19.4,9.3z M19.4,12.4
				c-0.6,0-1.2-0.5-1.2-1.2s0.5-1.2,1.2-1.2c0.6,0,1.2,0.5,1.2,1.2S20,12.4,19.4,12.4z"/>
		</g>
	</g>
</g>
</svg>
