<?xml version="1.0" encoding="utf-8"?>
<!-- Generator: Adobe Illustrator 22.1.0, SVG Export Plug-In . SVG Version: 6.00 Build 0)  -->
<svg version="1.1" id="Слой_1" xmlns="http://www.w3.org/2000/svg" xmlns:xlink="http://www.w3.org/1999/xlink" x="0px" y="0px"
	 viewBox="0 0 24 24" style="enable-background:new 0 0 24 24;" xml:space="preserve">
<g>
	<g>
		<g>
			<path d="M23.1,18.8c-0.3-1.6-1.3-2.8-2.8-3.3L17,14.4v-0.5h-0.8v0.7l-2.7,5.1l-2.7-5.1v-0.7H10v0.9l3.1,5.8v0.7H8.5V22h4.6v1.2
				H7.4l0.3-2.5c0.5-0.3,0.8-0.9,0.8-1.5v-0.3H7.7v0.3c0,0.4-0.2,0.7-0.6,0.9L7,20.2l-0.4,3H3.9l0.4-2.6l-0.8-0.1L3,23.9h21
				L23.1,18.8z M13.9,23.2V22h4.6v-0.8h-4.6v-0.7l2.9-5.4l1.7,0.6v3.5c0,0.6,0.3,1.2,0.8,1.5l0.3,2.5L13.9,23.2L13.9,23.2z
				 M20.4,23.2l-0.4-3l-0.2-0.1c-0.3-0.2-0.6-0.5-0.6-0.9V16l0.8,0.3c1.2,0.4,2.1,1.5,2.3,2.7l0.7,4.2H20.4z"/>
			<path d="M6.9,8.5c0,1,0.8,1.8,1.7,1.9c0.2,0.7,0.6,1.3,1.1,1.8l1.5,1.5c0.4,0.4,0.8,0.6,1.4,0.6h1.8c0.5,0,1-0.2,1.4-0.6l1.5-1.5
				c0.5-0.5,0.9-1.1,1.1-1.8c1-0.1,1.7-0.9,1.7-1.9c0-0.4-0.2-0.8-0.4-1.2h0.8V5h-1.2c-0.3-2.3-2-4.2-4.2-4.8V0H12v0.2
				C9.7,0.8,8.1,2.7,7.8,5H6.6v2.3h0.8C7.1,7.7,6.9,8.1,6.9,8.5z M7.7,8.5C7.7,8,8,7.6,8.5,7.4v1.8c0,0.1,0,0.3,0,0.4
				C8.1,9.4,7.7,9,7.7,8.5z M17.8,9.2c0,0.9-0.4,1.8-1,2.5l-1.5,1.5c-0.2,0.2-0.5,0.3-0.8,0.3h-1.8c-0.3,0-0.6-0.1-0.8-0.3l-1.5-1.5
				c-0.7-0.7-1-1.5-1-2.5V7.3h8.5V9.2z M18.5,9.6c0-0.1,0-0.2,0-0.4V7.4C19,7.6,19.3,8,19.3,8.5C19.3,9,19,9.4,18.5,9.6z M12,1v3.2
				h0.8V0.8h1.5v3.5h0.8V1c1.8,0.6,3.1,2.1,3.4,4H8.6C8.8,3.2,10.2,1.6,12,1z M7.3,6.6V5.8h12.4v0.8H7.3z"/>
			<rect x="15.8" y="3.5" width="0.8" height="0.8"/>
			<rect x="10.4" y="3.5" width="0.8" height="0.8"/>
			<path d="M3.5,19.7h2.2l0.2-1c0.1,0,0.3-0.1,0.4-0.2l0.8,0.6l1.5-1.5l-0.6-0.8c0.1-0.1,0.1-0.2,0.2-0.4l1-0.2V14l-1-0.2
				c-0.1-0.2-0.2-0.4-0.3-0.6l-0.7,0.4c0.1,0.2,0.2,0.4,0.3,0.7l0.1,0.2l0.8,0.2v0.9l-0.8,0.2l-0.1,0.2c-0.1,0.2-0.2,0.4-0.3,0.7
				l-0.1,0.2l0.5,0.7L7,18.1l-0.7-0.5l-0.2,0.1C5.9,17.9,5.7,18,5.5,18l-0.2,0.1l-0.2,0.8H4.2L4,18.1L3.8,18
				c-0.2-0.1-0.4-0.2-0.7-0.3l-0.2-0.1l-0.7,0.5l-0.9-0.9l-0.5,0.5l1.3,1.3L3,18.5c0.1,0.1,0.2,0.1,0.4,0.2L3.5,19.7z"/>
			<path d="M1.3,16.9l0.7-0.4c-0.1-0.2-0.2-0.4-0.3-0.7l-0.1-0.2l-0.8-0.2v-0.9l0.8-0.2l0.1-0.2c0.1-0.2,0.2-0.4,0.3-0.7L2,13.3
				l-0.5-0.7L2.2,12l0.7,0.5l0.2-0.1c0.2-0.1,0.4-0.2,0.7-0.3L4,12l0.2-0.8h0.9L5.3,12l0.2,0.1c0.2,0.1,0.4,0.2,0.7,0.3l0.2,0.1
				L7,12l0.9,0.9l0.5-0.5L7.1,11l-0.8,0.6c-0.1-0.1-0.2-0.1-0.4-0.2l-0.2-1H3.5l-0.2,1c-0.1,0-0.3,0.1-0.4,0.2L2.1,11l-1.5,1.5
				l0.6,0.8C1.1,13.5,1,13.6,1,13.8L0,14v2.2l1,0.2C1.1,16.5,1.2,16.7,1.3,16.9z"/>
			<path d="M4.6,13.1c-1.1,0-1.9,0.9-1.9,1.9S3.6,17,4.6,17s1.9-0.9,1.9-1.9S5.7,13.1,4.6,13.1z M4.6,16.2c-0.6,0-1.2-0.5-1.2-1.2
				c0-0.6,0.5-1.2,1.2-1.2s1.2,0.5,1.2,1.2C5.8,15.7,5.3,16.2,4.6,16.2z"/>
		</g>
	</g>
</g>
</svg>
