<?xml version="1.0" encoding="utf-8"?>
<!-- Generator: Adobe Illustrator 22.1.0, SVG Export Plug-In . SVG Version: 6.00 Build 0)  -->
<svg version="1.1" id="Слой_1" xmlns="http://www.w3.org/2000/svg" xmlns:xlink="http://www.w3.org/1999/xlink" x="0px" y="0px"
	 viewBox="0 0 24 24" style="enable-background:new 0 0 24 24;" xml:space="preserve">
<g>
	<g>
		<g>
			<path d="M19.7,15.5H4.3c-2.3,0-4.3,1.9-4.3,4.3S1.9,24,4.3,24h15.5c2.3,0,4.3-1.9,4.3-4.3S22.1,15.5,19.7,15.5z M19.7,23.2H4.3
				c-1.9,0-3.5-1.6-3.5-3.5s1.6-3.5,3.5-3.5h15.5c1.9,0,3.5,1.6,3.5,3.5S21.7,23.2,19.7,23.2z"/>
			<path d="M19.7,17H4.3c-1.5,0-2.7,1.2-2.7,2.7s1.2,2.7,2.7,2.7h15.5c1.5,0,2.7-1.2,2.7-2.7S21.2,17,19.7,17z M19.7,21.7H4.3
				c-1.1,0-1.9-0.9-1.9-1.9s0.9-1.9,1.9-1.9h15.5c1.1,0,1.9,0.9,1.9,1.9S20.8,21.7,19.7,21.7z"/>
			<path d="M4.6,12.8h6.2v1.9h0.8V12h-1.2v-0.8h0.8V8.9h-7v2.3H5V12H3.9v2.7h0.8V12.8z M9.7,9.7h0.8v0.8H9.7V9.7z M9.7,12H5.8v-0.8
				h3.9V12z M8.1,9.7h0.8v0.8H8.1V9.7z M6.6,9.7h0.8v0.8H6.6V9.7z M5,9.7h0.8v0.8H5V9.7z"/>
			<path d="M20.1,14.7V12h-0.4v-1.5h-7V12h-0.4v2.7h0.8v-1.9h6.2v1.9H20.1z M19,12h-5.4v-0.8H19V12z"/>
			<path d="M19.7,7.4h-7v2.3h7V7.4z M14.3,8.9h-0.8V8.1h0.8V8.9z M15.9,8.9h-0.8V8.1h0.8V8.9z M17.4,8.9h-0.8V8.1h0.8V8.9z M19,8.9
				h-0.8V8.1H19V8.9z"/>
			<path d="M12.8,3.9h2.3v0.8c-0.9,0.2-1.5,1-1.5,1.9h0.8c0-0.6,0.5-1.2,1.2-1.2H17c0.6,0,1.2,0.5,1.2,1.2H19c0-0.9-0.7-1.7-1.5-1.9
				V3.9h2.3V2.3h1.5V0H11.2v2.3h1.5V3.9z M16.6,4.6h-0.8V3.9h0.8V4.6z M19,3.1h-5.4V2.3H19V3.1z M12,1.5V0.8h8.5v0.8H12z"/>
			<path d="M19.7,18.6c-0.6,0-1.2,0.5-1.2,1.2c0,0.6,0.5,1.2,1.2,1.2c0.6,0,1.2-0.5,1.2-1.2C20.9,19.1,20.4,18.6,19.7,18.6z
				 M19.7,20.1c-0.2,0-0.4-0.2-0.4-0.4s0.2-0.4,0.4-0.4s0.4,0.2,0.4,0.4S20,20.1,19.7,20.1z"/>
			<path d="M16.6,18.6c-0.6,0-1.2,0.5-1.2,1.2c0,0.6,0.5,1.2,1.2,1.2c0.6,0,1.2-0.5,1.2-1.2C17.8,19.1,17.3,18.6,16.6,18.6z
				 M16.6,20.1c-0.2,0-0.4-0.2-0.4-0.4s0.2-0.4,0.4-0.4c0.2,0,0.4,0.2,0.4,0.4S16.9,20.1,16.6,20.1z"/>
			<path d="M13.5,18.6c-0.6,0-1.2,0.5-1.2,1.2c0,0.6,0.5,1.2,1.2,1.2s1.2-0.5,1.2-1.2C14.7,19.1,14.2,18.6,13.5,18.6z M13.5,20.1
				c-0.2,0-0.4-0.2-0.4-0.4s0.2-0.4,0.4-0.4c0.2,0,0.4,0.2,0.4,0.4S13.8,20.1,13.5,20.1z"/>
			<path d="M10.5,18.6c-0.6,0-1.2,0.5-1.2,1.2c0,0.6,0.5,1.2,1.2,1.2s1.2-0.5,1.2-1.2C11.6,19.1,11.1,18.6,10.5,18.6z M10.5,20.1
				c-0.2,0-0.4-0.2-0.4-0.4s0.2-0.4,0.4-0.4c0.2,0,0.4,0.2,0.4,0.4S10.7,20.1,10.5,20.1z"/>
			<path d="M7.4,18.6c-0.6,0-1.2,0.5-1.2,1.2c0,0.6,0.5,1.2,1.2,1.2s1.2-0.5,1.2-1.2C8.5,19.1,8,18.6,7.4,18.6z M7.4,20.1
				C7.1,20.1,7,20,7,19.7s0.2-0.4,0.4-0.4c0.2,0,0.4,0.2,0.4,0.4S7.6,20.1,7.4,20.1z"/>
			<path d="M4.3,18.6c-0.6,0-1.2,0.5-1.2,1.2c0,0.6,0.5,1.2,1.2,1.2s1.2-0.5,1.2-1.2C5.4,19.1,4.9,18.6,4.3,18.6z M4.3,20.1
				c-0.2,0-0.4-0.2-0.4-0.4s0.2-0.4,0.4-0.4c0.2,0,0.4,0.2,0.4,0.4S4.5,20.1,4.3,20.1z"/>
		</g>
	</g>
</g>
</svg>
