<?xml version="1.0" encoding="utf-8"?>
<!-- Generator: Adobe Illustrator 22.1.0, SVG Export Plug-In . SVG Version: 6.00 Build 0)  -->
<svg version="1.1" id="Слой_1" xmlns="http://www.w3.org/2000/svg" xmlns:xlink="http://www.w3.org/1999/xlink" x="0px" y="0px"
	 viewBox="0 0 24 24" style="enable-background:new 0 0 24 24;" xml:space="preserve">
<path d="M20.1,16.3h-0.8v2.3H7.7v3.1c0,0.9-0.7,1.5-1.5,1.5s-1.5-0.7-1.5-1.5V2.3c0-0.6-0.2-1.1-0.6-1.5h13.8c0.9,0,1.5,0.7,1.5,1.5
	v0.8h0.8V2.3c0-1.3-1-2.3-2.3-2.3H2.3C1,0,0,1,0,2.3v3.9h3.9v15.5c0,1.3,1,2.3,2.3,2.3h15.5c1.3,0,2.3-1,2.3-2.3v-3.1h-3.9V16.3z
	 M3.9,5.4H0.8V2.3c0-0.9,0.7-1.5,1.5-1.5s1.5,0.7,1.5,1.5V5.4z M23.2,19.4v2.3c0,0.9-0.7,1.5-1.5,1.5H7.9c0.4-0.4,0.6-1,0.6-1.5
	v-2.3H23.2z"/>
<path d="M22.1,7.8c-0.1-0.3-0.2-0.6-0.4-0.9l-0.7,0.4c0.2,0.3,0.3,0.7,0.4,1l0.1,0.2l1.7,0.3v1.7l-1.7,0.3l-0.1,0.2
	c-0.1,0.4-0.2,0.7-0.4,1l-0.1,0.2l1,1.4l-1.2,1.2l-1.4-1l-0.2,0.1c-0.3,0.2-0.7,0.3-1,0.4l-0.2,0.1l-0.3,1.7h-1.7l-0.3-1.7l-0.2-0.1
	c-0.4-0.1-0.7-0.2-1-0.4L14,14l-1.4,1l-1.4-1.4l-0.5,0.5l1.9,1.9l1.6-1c0.2,0.1,0.5,0.2,0.7,0.3l0.4,1.9h3l0.4-1.9
	c0.3-0.1,0.5-0.2,0.7-0.3l1.6,1l2.1-2.1l-1-1.6c0.1-0.2,0.2-0.5,0.3-0.7l1.9-0.4v-3L22.1,7.8z"/>
<path d="M18.5,4.2l-0.4-1.9h-3l-0.4,1.9c-0.3,0.1-0.5,0.2-0.7,0.3l-1.6-1l-2.1,2.1l1,1.6c-0.1,0.2-0.2,0.5-0.3,0.7L9.3,8.2v3
	l1.9,0.4c0.1,0.3,0.2,0.6,0.4,0.9l0.7-0.4c-0.2-0.3-0.3-0.7-0.4-1l-0.1-0.2l-1.7-0.3V8.8l1.7-0.3l0.1-0.2c0.1-0.4,0.2-0.7,0.4-1
	l0.1-0.2l-1-1.4l1.2-1.2l1.4,1l0.2-0.1c0.3-0.2,0.7-0.3,1-0.4l0.2-0.1l0.3-1.7h1.7l0.3,1.7l0.2,0.1c0.4,0.1,0.7,0.2,1,0.4l0.2,0.1
	l1.4-1l1.4,1.4l0.5-0.5l-1.9-1.9l-1.6,1C19,4.4,18.7,4.3,18.5,4.2z"/>
<path d="M16.6,5.4c-2.3,0-4.3,1.9-4.3,4.3s1.9,4.3,4.3,4.3s4.3-1.9,4.3-4.3S19,5.4,16.6,5.4z M16.6,13.2c-1.9,0-3.5-1.6-3.5-3.5
	s1.6-3.5,3.5-3.5s3.5,1.6,3.5,3.5S18.6,13.2,16.6,13.2z"/>
<path d="M7,8.1c-0.9,0-1.5,0.7-1.5,1.5s0.7,1.5,1.5,1.5s1.5-0.7,1.5-1.5S7.8,8.1,7,8.1z M7,10.5c-0.4,0-0.8-0.3-0.8-0.8
	c0-0.4,0.3-0.8,0.8-0.8s0.8,0.3,0.8,0.8C7.7,10.1,7.4,10.5,7,10.5z"/>
<path d="M7,3.5C6.1,3.5,5.4,4.2,5.4,5S6.1,6.6,7,6.6S8.5,5.9,8.5,5S7.8,3.5,7,3.5z M7,5.8C6.5,5.8,6.2,5.5,6.2,5S6.5,4.3,7,4.3
	S7.7,4.6,7.7,5S7.4,5.8,7,5.8z"/>
<path d="M7,12.8c-0.9,0-1.5,0.7-1.5,1.5c0,0.9,0.7,1.5,1.5,1.5s1.5-0.7,1.5-1.5C8.5,13.5,7.8,12.8,7,12.8z M7,15.1
	c-0.4,0-0.8-0.3-0.8-0.8c0-0.4,0.3-0.8,0.8-0.8s0.8,0.3,0.8,0.8C7.7,14.7,7.4,15.1,7,15.1z"/>
</svg>
